<svg width="620" height="160" viewBox="0 0 620 160" xmlns="http://www.w3.org/2000/svg"><mask id="satori_om-id"><rect x="0" y="0" width="620" height="160" fill="#fff"/></mask><defs><clipPath id="satori_bc-id-0"><path x="19" y="37" width="150" height="86" d="M31,37 h126 a12,12 0 0 1 12,12 v62 a12,12 0 0 1 -12,12 h-126 a12,12 0 0 1 -12,-12 v-62 a12,12 0 0 1 12,-12"/></clipPath></defs><mask id="satori_om-id-0"><rect x="21" y="39" width="146" height="82" fill="#fff"/><path width="150" height="86" fill="none" stroke="#000" stroke-width="4" d="M22.515,40.515 A12,12 0 0 1 31,37 h126 a12,12 0 0 1 12,12 v62 a12,12 0 0 1 -12,12 h-126 a12,12 0 0 1 -12,-12 v-62 A12,12 0 0 1 22.515,40.515"/></mask><path x="19" y="37" width="150" height="86" fill="#F3F0E8" d="M31,37 h126 a12,12 0 0 1 12,12 v62 a12,12 0 0 1 -12,12 h-126 a12,12 0 0 1 -12,-12 v-62 a12,12 0 0 1 12,-12"/><path width="150" height="86" clip-path="url(#satori_bc-id-0)" fill="none" stroke="#817B6D" stroke-width="4" d="M22.515,40.515 A12,12 0 0 1 31,37 h126 a12,12 0 0 1 12,12 v62 a12,12 0 0 1 -12,12 h-126 a12,12 0 0 1 -12,-12 v-62 A12,12 0 0 1 22.515,40.515"/><mask id="satori_om-id-0-0"><rect x="56" y="57" width="76" height="21" fill="#fff"/></mask><g  ><path fill="#1B1A17" d="M64.9 64.0L61.9 64.0L61.9 73L59.5 73L59.5 64.0L56.4 64.0L56.4 61.8L64.9 61.8L64.9 64.0ZM68.1 73L65.7 73L65.7 64.6L68.1 64.6L68.1 66.4L68.2 66.4Q68.2 66.1 68.4 65.7Q68.6 65.4 68.8 65.2Q69.1 64.9 69.5 64.8Q69.8 64.6 70.3 64.6L70.3 64.6L70.7 64.6L70.7 66.8L70.1 66.8Q69.1 66.8 68.6 67.1Q68.1 67.4 68.1 68.1L68.1 68.1L68.1 73ZM79.5 73L78.2 73Q77.5 73 77.1 72.6Q76.7 72.2 76.6 71.5L76.6 71.5L76.5 71.5Q76.3 72.3 75.6 72.8Q75.0 73.2 74.0 73.2L74.0 73.2Q72.8 73.2 72.1 72.5Q71.4 71.8 71.4 70.7L71.4 70.7Q71.4 69.4 72.4 68.8Q73.3 68.1 75.0 68.1L75.0 68.1L76.3 68.1L76.3 67.6Q76.3 67.0 76.0 66.6Q75.7 66.3 74.9 66.3L74.9 66.3Q74.2 66.3 73.8 66.6Q73.4 66.9 73.1 67.3L73.1 67.3L71.7 66.0Q72.2 65.3 73.0 64.8Q73.8 64.4 75.1 64.4L75.1 64.4Q76.9 64.4 77.8 65.2Q78.7 66.0 78.7 67.5L78.7 67.5L78.7 71.2L79.5 71.2L79.5 73ZM74.9 71.5L74.9 71.5Q75.5 71.5 75.9 71.3Q76.3 71.0 76.3 70.5L76.3 70.5L76.3 69.5L75.2 69.5Q73.8 69.5 73.8 70.4L73.8 70.4L73.8 70.6Q73.8 71.1 74.1 71.3Q74.4 71.5 74.9 71.5ZM82.3 63.7L82.3 63.7Q81.5 63.7 81.2 63.4Q80.9 63.0 80.9 62.5L80.9 62.5L80.9 62.2Q80.9 61.7 81.2 61.3Q81.5 61.0 82.3 61.0L82.3 61.0Q83.0 61.0 83.3 61.3Q83.6 61.7 83.6 62.2L83.6 62.2L83.6 62.5Q83.6 63.0 83.3 63.4Q83.0 63.7 82.3 63.7ZM81.1 73L81.1 64.6L83.4 64.6L83.4 73L81.1 73ZM88.0 73L85.6 73L85.6 64.6L88.0 64.6L88.0 66.0L88.1 66.0Q88.3 65.4 88.9 64.9Q89.5 64.4 90.4 64.4L90.4 64.4Q91.7 64.4 92.4 65.3Q93.1 66.1 93.1 67.7L93.1 67.7L93.1 73L90.7 73L90.7 67.9Q90.7 67.1 90.4 66.7Q90.2 66.3 89.5 66.3L89.5 66.3Q89.2 66.3 89.0 66.4Q88.7 66.5 88.5 66.6Q88.3 66.8 88.1 67.0Q88.0 67.3 88.0 67.6L88.0 67.6L88.0 73ZM96.4 63.7L96.4 63.7Q95.6 63.7 95.3 63.4Q95.0 63.0 95.0 62.5L95.0 62.5L95.0 62.2Q95.0 61.7 95.3 61.3Q95.6 61.0 96.4 61.0L96.4 61.0Q97.1 61.0 97.4 61.3Q97.7 61.7 97.7 62.2L97.7 62.2L97.7 62.5Q97.7 63.0 97.4 63.4Q97.1 63.7 96.4 63.7ZM95.2 73L95.2 64.6L97.6 64.6L97.6 73L95.2 73ZM102.1 73L99.8 73L99.8 64.6L102.1 64.6L102.1 66.0L102.2 66.0Q102.4 65.4 103.0 64.9Q103.6 64.4 104.6 64.4L104.6 64.4Q105.9 64.4 106.5 65.3Q107.2 66.1 107.2 67.7L107.2 67.7L107.2 73L104.8 73L104.8 67.9Q104.8 67.1 104.6 66.7Q104.3 66.3 103.6 66.3L103.6 66.3Q103.4 66.3 103.1 66.4Q102.8 66.5 102.6 66.6Q102.4 66.8 102.3 67.0Q102.1 67.3 102.1 67.6L102.1 67.6L102.1 73ZM117.1 73.6L117.1 73.6Q117.1 74.3 116.8 74.8Q116.6 75.3 116.1 75.7Q115.6 76.0 114.7 76.2Q113.8 76.4 112.5 76.4L112.5 76.4Q111.4 76.4 110.7 76.3Q109.9 76.1 109.4 75.9Q109.0 75.6 108.8 75.3Q108.5 74.9 108.5 74.4L108.5 74.4Q108.5 73.7 109.0 73.3Q109.4 72.9 110.1 72.8L110.1 72.8L110.1 72.7Q109.5 72.6 109.2 72.1Q108.9 71.7 108.9 71.2L108.9 71.2Q108.9 70.9 109.0 70.6Q109.2 70.4 109.4 70.2Q109.6 70.0 109.9 69.9Q110.2 69.8 110.5 69.7L110.5 69.7L110.5 69.6Q109.7 69.3 109.3 68.7Q109.0 68.1 109.0 67.2L109.0 67.2Q109.0 66.0 109.8 65.2Q110.7 64.4 112.6 64.4L112.6 64.4Q113.4 64.4 114.0 64.6L114.0 64.6L114.0 64.2Q114.0 63.6 114.3 63.3Q114.6 63.0 115.2 63.0L115.2 63.0L116.6 63.0L116.6 64.7L114.7 64.7L114.7 64.8Q115.5 65.2 115.8 65.8Q116.2 66.4 116.2 67.2L116.2 67.2Q116.2 68.5 115.3 69.3Q114.4 70.0 112.6 70.0L112.6 70.0Q111.7 70.0 111.1 69.8L111.1 69.8Q110.7 70.1 110.7 70.5L110.7 70.5Q110.7 70.8 110.9 71.0Q111.2 71.2 111.7 71.2L111.7 71.2L114.1 71.2Q115.7 71.2 116.4 71.8Q117.1 72.4 117.1 73.6ZM114.8 73.9L114.8 73.9Q114.8 73.6 114.6 73.4Q114.3 73.2 113.6 73.2L113.6 73.2L110.7 73.2Q110.5 73.3 110.4 73.5Q110.4 73.7 110.4 73.9L110.4 73.9Q110.4 74.4 110.8 74.6Q111.2 74.8 112.1 74.8L112.1 74.8L113.1 74.8Q114.0 74.8 114.4 74.6Q114.8 74.4 114.8 73.9ZM112.6 68.5L112.6 68.5Q113.3 68.5 113.6 68.2Q114.0 67.9 114.0 67.3L114.0 67.3L114.0 67.1Q114.0 66.6 113.6 66.3Q113.3 66.0 112.6 66.0L112.6 66.0Q111.9 66.0 111.5 66.3Q111.2 66.6 111.2 67.1L111.2 67.1L111.2 67.3Q111.2 67.9 111.5 68.2Q111.9 68.5 112.6 68.5ZM121.0 73.2L121.0 73.2Q119.8 73.2 118.9 72.8Q118.1 72.4 117.4 71.7L117.4 71.7L118.8 70.3Q119.3 70.8 119.8 71.1Q120.4 71.4 121.1 71.4L121.1 71.4Q121.8 71.4 122.0 71.1Q122.3 70.9 122.3 70.6L122.3 70.6Q122.3 70.0 121.5 69.8L121.5 69.8L120.5 69.7Q117.7 69.4 117.7 67.1L117.7 67.1Q117.7 66.5 117.9 66.0Q118.2 65.5 118.6 65.2Q119.0 64.8 119.6 64.6Q120.2 64.4 121.0 64.4L121.0 64.4Q121.6 64.4 122.1 64.5Q122.6 64.6 123.0 64.8Q123.4 64.9 123.8 65.2Q124.1 65.4 124.4 65.7L124.4 65.7L123.0 67.1Q122.6 66.7 122.1 66.5Q121.6 66.2 121.1 66.2L121.1 66.2Q120.5 66.2 120.2 66.4Q120.0 66.6 120.0 67.0L120.0 67.0Q120.0 67.3 120.2 67.5Q120.4 67.7 120.9 67.7L120.9 67.7L121.8 67.9Q124.6 68.2 124.6 70.4L124.6 70.4Q124.6 71 124.3 71.5Q124.1 72.0 123.6 72.4Q123.1 72.8 122.5 73.0Q121.8 73.2 121.0 73.2ZM130.7 69.3L125.9 69.3L125.9 67.0L130.7 67.0L130.7 69.3Z "/></g><mask id="satori_om-id-0-1"><rect x="60" y="82" width="69" height="21" fill="#fff"/></mask><g  ><path fill="#1B1A17" d="M61.1 98L61.1 86.2L63.5 86.2L63.5 91.0L63.6 91.0Q63.7 90.3 64.4 89.9Q65.0 89.4 65.8 89.4L65.8 89.4Q67.4 89.4 68.2 90.5Q69.0 91.6 69.0 93.8L69.0 93.8Q69.0 95.9 68.2 97.1Q67.4 98.2 65.8 98.2L65.8 98.2Q65.4 98.2 65.0 98.1Q64.7 98.0 64.4 97.7Q64.1 97.5 63.9 97.2Q63.6 96.9 63.6 96.6L63.6 96.6L63.5 96.6L63.5 98L61.1 98ZM65.0 96.3L65.0 96.3Q65.7 96.3 66.1 95.8Q66.6 95.3 66.6 94.5L66.6 94.5L66.6 93.1Q66.6 92.3 66.1 91.8Q65.7 91.3 65.0 91.3L65.0 91.3Q64.4 91.3 63.9 91.7Q63.5 92.0 63.5 92.6L63.5 92.6L63.5 95.0Q63.5 95.6 63.9 95.9Q64.4 96.3 65.0 96.3ZM74.3 98.2L74.3 98.2Q73.4 98.2 72.6 97.9Q71.9 97.6 71.4 97Q70.8 96.4 70.6 95.6Q70.3 94.8 70.3 93.8L70.3 93.8Q70.3 92.8 70.6 92.0Q70.8 91.2 71.3 90.6Q71.8 90.0 72.6 89.7Q73.3 89.4 74.2 89.4L74.2 89.4Q75.3 89.4 76.0 89.8Q76.8 90.1 77.2 90.7Q77.7 91.3 77.9 92.1Q78.1 92.8 78.1 93.7L78.1 93.7L78.1 94.4L72.8 94.4L72.8 94.5Q72.8 95.4 73.2 95.8Q73.6 96.3 74.6 96.3L74.6 96.3Q75.3 96.3 75.8 96.0Q76.3 95.7 76.7 95.3L76.7 95.3L77.9 96.8Q77.3 97.5 76.4 97.8Q75.5 98.2 74.3 98.2ZM74.3 91.2L74.3 91.2Q73.6 91.2 73.2 91.6Q72.8 92.1 72.8 92.9L72.8 92.9L72.8 93.0L75.7 93.0L75.7 92.9Q75.7 92.1 75.4 91.6Q75.0 91.2 74.3 91.2ZM81.0 88.7L81.0 88.7Q80.3 88.7 80.0 88.4Q79.6 88.0 79.6 87.5L79.6 87.5L79.6 87.2Q79.6 86.7 80.0 86.3Q80.3 86.0 81.0 86.0L81.0 86.0Q81.7 86.0 82.1 86.3Q82.4 86.7 82.4 87.2L82.4 87.2L82.4 87.5Q82.4 88.0 82.1 88.4Q81.7 88.7 81.0 88.7ZM79.8 98L79.8 89.6L82.2 89.6L82.2 98L79.8 98ZM87.2 98.2L87.2 98.2Q86.0 98.2 85.2 97.8Q84.4 97.4 83.7 96.7L83.7 96.7L85.1 95.3Q85.6 95.8 86.1 96.1Q86.6 96.4 87.3 96.4L87.3 96.4Q88.0 96.4 88.3 96.1Q88.6 95.9 88.6 95.6L88.6 95.6Q88.6 95.0 87.7 94.8L87.7 94.8L86.8 94.7Q84.0 94.4 84.0 92.1L84.0 92.1Q84.0 91.5 84.2 91.0Q84.4 90.5 84.9 90.2Q85.3 89.8 85.9 89.6Q86.5 89.4 87.2 89.4L87.2 89.4Q87.9 89.4 88.4 89.5Q88.9 89.6 89.3 89.8Q89.7 89.9 90.0 90.2Q90.4 90.4 90.7 90.7L90.7 90.7L89.3 92.1Q88.9 91.7 88.4 91.5Q87.9 91.2 87.4 91.2L87.4 91.2Q86.8 91.2 86.5 91.4Q86.3 91.6 86.3 92.0L86.3 92.0Q86.3 92.3 86.4 92.5Q86.6 92.7 87.1 92.7L87.1 92.7L88.1 92.9Q90.8 93.2 90.8 95.4L90.8 95.4Q90.8 96 90.6 96.5Q90.3 97.0 89.9 97.4Q89.4 97.8 88.7 98.0Q88.1 98.2 87.2 98.2ZM92.5 101.2L92.5 89.6L94.8 89.6L94.8 91.0L94.9 91.0Q95.1 90.3 95.7 89.9Q96.4 89.4 97.2 89.4L97.2 89.4Q98.8 89.4 99.6 90.5Q100.4 91.6 100.4 93.8L100.4 93.8Q100.4 95.9 99.6 97.1Q98.8 98.2 97.2 98.2L97.2 98.2Q96.8 98.2 96.4 98.1Q96.0 98.0 95.7 97.7Q95.4 97.5 95.2 97.2Q95.0 96.9 94.9 96.6L94.9 96.6L94.8 96.6L94.8 101.2L92.5 101.2ZM96.4 96.3L96.4 96.3Q97.1 96.3 97.5 95.8Q97.9 95.3 97.9 94.5L97.9 94.5L97.9 93.1Q97.9 92.3 97.5 91.8Q97.1 91.3 96.4 91.3L96.4 91.3Q95.7 91.3 95.3 91.7Q94.8 92.0 94.8 92.6L94.8 92.6L94.8 95.0Q94.8 95.6 95.3 95.9Q95.7 96.3 96.4 96.3ZM103.4 88.7L103.4 88.7Q102.7 88.7 102.3 88.4Q102.0 88.0 102.0 87.5L102.0 87.5L102.0 87.2Q102.0 86.7 102.3 86.3Q102.7 86.0 103.4 86.0L103.4 86.0Q104.1 86.0 104.4 86.3Q104.8 86.7 104.8 87.2L104.8 87.2L104.8 87.5Q104.8 88.0 104.4 88.4Q104.1 88.7 103.4 88.7ZM102.2 98L102.2 89.6L104.6 89.6L104.6 98L102.2 98ZM110.3 98.2L110.3 98.2Q109.3 98.2 108.6 97.9Q107.8 97.6 107.3 97Q106.8 96.4 106.5 95.6Q106.2 94.8 106.2 93.8L106.2 93.8Q106.2 92.8 106.5 92.0Q106.8 91.2 107.3 90.6Q107.8 90.0 108.5 89.7Q109.2 89.4 110.2 89.4L110.2 89.4Q111.2 89.4 112.0 89.8Q112.7 90.1 113.2 90.7Q113.6 91.3 113.9 92.1Q114.1 92.8 114.1 93.7L114.1 93.7L114.1 94.4L108.7 94.4L108.7 94.5Q108.7 95.4 109.1 95.8Q109.6 96.3 110.5 96.3L110.5 96.3Q111.3 96.3 111.7 96.0Q112.2 95.7 112.6 95.3L112.6 95.3L113.8 96.8Q113.2 97.5 112.3 97.8Q111.4 98.2 110.3 98.2ZM110.2 91.2L110.2 91.2Q109.5 91.2 109.1 91.6Q108.7 92.1 108.7 92.9L108.7 92.9L108.7 93.0L111.6 93.0L111.6 92.9Q111.6 92.1 111.3 91.6Q110.9 91.2 110.2 91.2ZM119.2 98L118.1 98Q116.9 98 116.3 97.4Q115.8 96.8 115.8 95.7L115.8 95.7L115.8 86.2L118.1 86.2L118.1 96.2L119.2 96.2L119.2 98ZM124.1 98.2L124.1 98.2Q123.2 98.2 122.4 97.9Q121.6 97.6 121.1 97Q120.6 96.4 120.3 95.6Q120.1 94.8 120.1 93.8L120.1 93.8Q120.1 92.8 120.3 92.0Q120.6 91.2 121.1 90.6Q121.6 90.0 122.3 89.7Q123.1 89.4 124.0 89.4L124.0 89.4Q125.1 89.4 125.8 89.8Q126.5 90.1 127.0 90.7Q127.5 91.3 127.7 92.1Q127.9 92.8 127.9 93.7L127.9 93.7L127.9 94.4L122.5 94.4L122.5 94.5Q122.5 95.4 123.0 95.8Q123.4 96.3 124.4 96.3L124.4 96.3Q125.1 96.3 125.6 96.0Q126.0 95.7 126.4 95.3L126.4 95.3L127.6 96.8Q127.1 97.5 126.2 97.8Q125.3 98.2 124.1 98.2ZM124.1 91.2L124.1 91.2Q123.3 91.2 122.9 91.6Q122.5 92.1 122.5 92.9L122.5 92.9L122.5 93.0L125.5 93.0L125.5 92.9Q125.5 92.1 125.1 91.6Q124.8 91.2 124.1 91.2Z "/></g><mask id="satori_om-id-1"><rect x="169" y="62" width="51" height="36" fill="#fff"/></mask><g  ><path fill="#0E7469" d="M204.4 81.2L198.6 87.0L197.3 85.7L199.7 83.3L201.1 82.1L201.1 82.0L198.3 82.2L184.5 82.2L184.5 80.3L198.3 80.3L201.1 80.4L201.1 80.4L199.7 79.2L197.3 76.8L198.6 75.4L204.4 81.2Z "/></g><defs><clipPath id="satori_bc-id-2"><path x="220" y="37" width="150" height="86" d="M232,37 h126 a12,12 0 0 1 12,12 v62 a12,12 0 0 1 -12,12 h-126 a12,12 0 0 1 -12,-12 v-62 a12,12 0 0 1 12,-12"/></clipPath></defs><mask id="satori_om-id-2"><rect x="222" y="39" width="146" height="82" fill="#fff"/><path width="150" height="86" fill="none" stroke="#000" stroke-width="4" d="M223.515,40.515 A12,12 0 0 1 232,37 h126 a12,12 0 0 1 12,12 v62 a12,12 0 0 1 -12,12 h-126 a12,12 0 0 1 -12,-12 v-62 A12,12 0 0 1 223.515,40.515"/></mask><path x="220" y="37" width="150" height="86" fill="#E8F3F1" d="M232,37 h126 a12,12 0 0 1 12,12 v62 a12,12 0 0 1 -12,12 h-126 a12,12 0 0 1 -12,-12 v-62 a12,12 0 0 1 12,-12"/><path width="150" height="86" clip-path="url(#satori_bc-id-2)" fill="none" stroke="#0E7469" stroke-width="4" d="M223.515,40.515 A12,12 0 0 1 232,37 h126 a12,12 0 0 1 12,12 v62 a12,12 0 0 1 -12,12 h-126 a12,12 0 0 1 -12,-12 v-62 A12,12 0 0 1 223.515,40.515"/><mask id="satori_om-id-2-0"><rect x="257" y="57" width="76" height="21" fill="#fff"/></mask><g  ><path fill="#1B1A17" d="M265.9 64.0L262.9 64.0L262.9 73L260.5 73L260.5 64.0L257.4 64.0L257.4 61.8L265.9 61.8L265.9 64.0ZM269.1 73L266.7 73L266.7 64.6L269.1 64.6L269.1 66.4L269.2 66.4Q269.2 66.1 269.4 65.7Q269.6 65.4 269.8 65.2Q270.1 64.9 270.5 64.8Q270.8 64.6 271.3 64.6L271.3 64.6L271.7 64.6L271.7 66.8L271.1 66.8Q270.1 66.8 269.6 67.1Q269.1 67.4 269.1 68.1L269.1 68.1L269.1 73ZM280.5 73L279.2 73Q278.5 73 278.1 72.6Q277.7 72.2 277.6 71.5L277.6 71.5L277.5 71.5Q277.3 72.3 276.6 72.8Q276.0 73.2 275.0 73.2L275.0 73.2Q273.8 73.2 273.1 72.5Q272.4 71.8 272.4 70.7L272.4 70.7Q272.4 69.4 273.4 68.8Q274.3 68.1 276.0 68.1L276.0 68.1L277.3 68.1L277.3 67.6Q277.3 67.0 277.0 66.6Q276.7 66.3 275.9 66.3L275.9 66.3Q275.2 66.3 274.8 66.6Q274.4 66.9 274.1 67.3L274.1 67.3L272.7 66.0Q273.2 65.3 274.0 64.8Q274.8 64.4 276.1 64.4L276.1 64.4Q277.9 64.4 278.8 65.2Q279.7 66.0 279.7 67.5L279.7 67.5L279.7 71.2L280.5 71.2L280.5 73ZM275.9 71.5L275.9 71.5Q276.5 71.5 276.9 71.3Q277.3 71.0 277.3 70.5L277.3 70.5L277.3 69.5L276.2 69.5Q274.8 69.5 274.8 70.4L274.8 70.4L274.8 70.6Q274.8 71.1 275.1 71.3Q275.4 71.5 275.9 71.5ZM283.3 63.7L283.3 63.7Q282.5 63.7 282.2 63.4Q281.9 63.0 281.9 62.5L281.9 62.5L281.9 62.2Q281.9 61.7 282.2 61.3Q282.5 61.0 283.3 61.0L283.3 61.0Q284.0 61.0 284.3 61.3Q284.6 61.7 284.6 62.2L284.6 62.2L284.6 62.5Q284.6 63.0 284.3 63.4Q284.0 63.7 283.3 63.7ZM282.1 73L282.1 64.6L284.4 64.6L284.4 73L282.1 73ZM289.0 73L286.6 73L286.6 64.6L289.0 64.6L289.0 66.0L289.1 66.0Q289.3 65.4 289.9 64.9Q290.5 64.4 291.4 64.4L291.4 64.4Q292.7 64.4 293.4 65.3Q294.1 66.1 294.1 67.7L294.1 67.7L294.1 73L291.7 73L291.7 67.9Q291.7 67.1 291.4 66.7Q291.2 66.3 290.5 66.3L290.5 66.3Q290.2 66.3 290.0 66.4Q289.7 66.5 289.5 66.6Q289.3 66.8 289.1 67.0Q289.0 67.3 289.0 67.6L289.0 67.6L289.0 73ZM297.4 63.7L297.4 63.7Q296.6 63.7 296.3 63.4Q296.0 63.0 296.0 62.5L296.0 62.5L296.0 62.2Q296.0 61.7 296.3 61.3Q296.6 61.0 297.4 61.0L297.4 61.0Q298.1 61.0 298.4 61.3Q298.7 61.7 298.7 62.2L298.7 62.2L298.7 62.5Q298.7 63.0 298.4 63.4Q298.1 63.7 297.4 63.7ZM296.2 73L296.2 64.6L298.6 64.6L298.6 73L296.2 73ZM303.1 73L300.8 73L300.8 64.6L303.1 64.6L303.1 66.0L303.2 66.0Q303.4 65.4 304.0 64.9Q304.6 64.4 305.6 64.4L305.6 64.4Q306.9 64.4 307.5 65.3Q308.2 66.1 308.2 67.7L308.2 67.7L308.2 73L305.8 73L305.8 67.9Q305.8 67.1 305.6 66.7Q305.3 66.3 304.6 66.3L304.6 66.3Q304.4 66.3 304.1 66.4Q303.8 66.5 303.6 66.6Q303.4 66.8 303.3 67.0Q303.1 67.3 303.1 67.6L303.1 67.6L303.1 73ZM318.1 73.6L318.1 73.6Q318.1 74.3 317.8 74.8Q317.6 75.3 317.1 75.7Q316.6 76.0 315.7 76.2Q314.8 76.4 313.5 76.4L313.5 76.4Q312.4 76.4 311.7 76.3Q310.9 76.1 310.4 75.9Q310.0 75.6 309.8 75.3Q309.5 74.9 309.5 74.4L309.5 74.4Q309.5 73.7 310.0 73.3Q310.4 72.9 311.1 72.8L311.1 72.8L311.1 72.7Q310.5 72.6 310.2 72.1Q309.9 71.7 309.9 71.2L309.9 71.2Q309.9 70.9 310.0 70.6Q310.2 70.4 310.4 70.2Q310.6 70.0 310.9 69.9Q311.2 69.8 311.5 69.7L311.5 69.7L311.5 69.6Q310.7 69.3 310.3 68.7Q310.0 68.1 310.0 67.2L310.0 67.2Q310.0 66.0 310.8 65.2Q311.7 64.4 313.6 64.4L313.6 64.4Q314.4 64.4 315.0 64.6L315.0 64.6L315.0 64.2Q315.0 63.6 315.3 63.3Q315.6 63.0 316.2 63.0L316.2 63.0L317.6 63.0L317.6 64.7L315.7 64.7L315.7 64.8Q316.5 65.2 316.8 65.8Q317.2 66.4 317.2 67.2L317.2 67.2Q317.2 68.5 316.3 69.3Q315.4 70.0 313.6 70.0L313.6 70.0Q312.7 70.0 312.1 69.8L312.1 69.8Q311.7 70.1 311.7 70.5L311.7 70.5Q311.7 70.8 311.9 71.0Q312.2 71.2 312.7 71.2L312.7 71.2L315.1 71.2Q316.7 71.2 317.4 71.8Q318.1 72.4 318.1 73.6ZM315.8 73.9L315.8 73.9Q315.8 73.6 315.6 73.4Q315.3 73.2 314.6 73.2L314.6 73.2L311.7 73.2Q311.5 73.3 311.4 73.5Q311.4 73.7 311.4 73.9L311.4 73.9Q311.4 74.4 311.8 74.6Q312.2 74.8 313.1 74.8L313.1 74.8L314.1 74.8Q315.0 74.8 315.4 74.6Q315.8 74.4 315.8 73.9ZM313.6 68.5L313.6 68.5Q314.3 68.5 314.6 68.2Q315.0 67.9 315.0 67.3L315.0 67.3L315.0 67.1Q315.0 66.6 314.6 66.3Q314.3 66.0 313.6 66.0L313.6 66.0Q312.9 66.0 312.5 66.3Q312.2 66.6 312.2 67.1L312.2 67.1L312.2 67.3Q312.2 67.9 312.5 68.2Q312.9 68.5 313.6 68.5ZM322.0 73.2L322.0 73.2Q320.8 73.2 319.9 72.8Q319.1 72.4 318.4 71.7L318.4 71.7L319.8 70.3Q320.3 70.8 320.8 71.1Q321.4 71.4 322.1 71.4L322.1 71.4Q322.8 71.4 323.0 71.1Q323.3 70.9 323.3 70.6L323.3 70.6Q323.3 70.0 322.5 69.8L322.5 69.8L321.5 69.7Q318.7 69.4 318.7 67.1L318.7 67.1Q318.7 66.5 318.9 66.0Q319.2 65.5 319.6 65.2Q320.0 64.8 320.6 64.6Q321.2 64.4 322.0 64.4L322.0 64.4Q322.6 64.4 323.1 64.5Q323.6 64.6 324.0 64.8Q324.4 64.9 324.8 65.2Q325.1 65.4 325.4 65.7L325.4 65.7L324.0 67.1Q323.6 66.7 323.1 66.5Q322.6 66.2 322.1 66.2L322.1 66.2Q321.5 66.2 321.2 66.4Q321.0 66.6 321.0 67.0L321.0 67.0Q321.0 67.3 321.2 67.5Q321.4 67.7 321.9 67.7L321.9 67.7L322.8 67.9Q325.6 68.2 325.6 70.4L325.6 70.4Q325.6 71 325.3 71.5Q325.1 72.0 324.6 72.4Q324.1 72.8 323.5 73.0Q322.8 73.2 322.0 73.2ZM331.7 69.3L326.9 69.3L326.9 67.0L331.7 67.0L331.7 69.3Z "/></g><mask id="satori_om-id-2-1"><rect x="250" y="82" width="91" height="21" fill="#fff"/></mask><g  ><path fill="#1B1A17" d="M258.6 98L257.3 98Q256.7 98 256.2 97.6Q255.8 97.2 255.7 96.5L255.7 96.5L255.6 96.5Q255.4 97.3 254.8 97.8Q254.1 98.2 253.2 98.2L253.2 98.2Q251.9 98.2 251.2 97.5Q250.5 96.8 250.5 95.7L250.5 95.7Q250.5 94.4 251.5 93.8Q252.5 93.1 254.1 93.1L254.1 93.1L255.5 93.1L255.5 92.6Q255.5 92.0 255.2 91.6Q254.8 91.3 254.1 91.3L254.1 91.3Q253.4 91.3 253.0 91.6Q252.5 91.9 252.3 92.3L252.3 92.3L250.9 91.0Q251.4 90.3 252.2 89.8Q252.9 89.4 254.3 89.4L254.3 89.4Q256.0 89.4 256.9 90.2Q257.8 91.0 257.8 92.5L257.8 92.5L257.8 96.2L258.6 96.2L258.6 98ZM254.0 96.5L254.0 96.5Q254.6 96.5 255.0 96.3Q255.5 96.0 255.5 95.5L255.5 95.5L255.5 94.5L254.3 94.5Q252.9 94.5 252.9 95.4L252.9 95.4L252.9 95.6Q252.9 96.1 253.2 96.3Q253.5 96.5 254.0 96.5ZM263.6 98L262.6 98Q261.3 98 260.8 97.4Q260.2 96.8 260.2 95.7L260.2 95.7L260.2 86.2L262.6 86.2L262.6 96.2L263.6 96.2L263.6 98ZM272.8 98.6L272.8 98.6Q272.8 99.3 272.6 99.8Q272.4 100.3 271.8 100.7Q271.3 101.0 270.4 101.2Q269.6 101.4 268.3 101.4L268.3 101.4Q267.2 101.4 266.4 101.3Q265.7 101.1 265.2 100.9Q264.7 100.6 264.5 100.3Q264.3 99.9 264.3 99.4L264.3 99.4Q264.3 98.7 264.7 98.3Q265.1 97.9 265.9 97.8L265.9 97.8L265.9 97.7Q265.3 97.6 265.0 97.1Q264.7 96.7 264.7 96.2L264.7 96.2Q264.7 95.9 264.8 95.6Q264.9 95.4 265.1 95.2Q265.4 95.0 265.6 94.9Q265.9 94.8 266.2 94.7L266.2 94.7L266.2 94.6Q265.5 94.3 265.1 93.7Q264.7 93.1 264.7 92.2L264.7 92.2Q264.7 91.0 265.6 90.2Q266.5 89.4 268.3 89.4L268.3 89.4Q269.2 89.4 269.7 89.6L269.7 89.6L269.7 89.2Q269.7 88.6 270.1 88.3Q270.4 88.0 271.0 88.0L271.0 88.0L272.3 88.0L272.3 89.7L270.5 89.7L270.5 89.8Q271.2 90.2 271.6 90.8Q271.9 91.4 271.9 92.2L271.9 92.2Q271.9 93.5 271.0 94.3Q270.1 95.0 268.3 95.0L268.3 95.0Q267.5 95.0 266.8 94.8L266.8 94.8Q266.5 95.1 266.5 95.5L266.5 95.5Q266.5 95.8 266.7 96.0Q266.9 96.2 267.5 96.2L267.5 96.2L269.9 96.2Q271.4 96.2 272.1 96.8Q272.8 97.4 272.8 98.6ZM270.6 98.9L270.6 98.9Q270.6 98.6 270.3 98.4Q270.0 98.2 269.3 98.2L269.3 98.2L266.4 98.2Q266.3 98.3 266.2 98.5Q266.1 98.7 266.1 98.9L266.1 98.9Q266.1 99.4 266.5 99.6Q266.9 99.8 267.9 99.8L267.9 99.8L268.8 99.8Q269.8 99.8 270.2 99.6Q270.6 99.4 270.6 98.9ZM268.3 93.5L268.3 93.5Q269.0 93.5 269.4 93.2Q269.7 92.9 269.7 92.3L269.7 92.3L269.7 92.1Q269.7 91.6 269.4 91.3Q269.0 91.0 268.3 91.0L268.3 91.0Q267.6 91.0 267.3 91.3Q266.9 91.6 266.9 92.1L266.9 92.1L266.9 92.3Q266.9 92.9 267.3 93.2Q267.6 93.5 268.3 93.5ZM277.2 98.2L277.2 98.2Q276.3 98.2 275.5 97.9Q274.8 97.6 274.3 97.0Q273.8 96.4 273.5 95.6Q273.3 94.8 273.3 93.8L273.3 93.8Q273.3 92.8 273.5 92.0Q273.8 91.2 274.3 90.6Q274.8 90.0 275.5 89.7Q276.3 89.4 277.2 89.4L277.2 89.4Q278.1 89.4 278.9 89.7Q279.6 90.0 280.1 90.6Q280.6 91.2 280.9 92.0Q281.1 92.8 281.1 93.8L281.1 93.8Q281.1 94.8 280.9 95.6Q280.6 96.4 280.1 97.0Q279.6 97.6 278.9 97.9Q278.1 98.2 277.2 98.2ZM277.2 96.3L277.2 96.3Q277.9 96.3 278.3 95.9Q278.7 95.5 278.7 94.7L278.7 94.7L278.7 92.9Q278.7 92.1 278.3 91.7Q277.9 91.3 277.2 91.3L277.2 91.3Q276.5 91.3 276.1 91.7Q275.7 92.1 275.7 92.9L275.7 92.9L275.7 94.7Q275.7 95.5 276.1 95.9Q276.5 96.3 277.2 96.3ZM285.2 98L282.8 98L282.8 89.6L285.2 89.6L285.2 91.4L285.3 91.4Q285.3 91.1 285.5 90.7Q285.6 90.4 285.9 90.2Q286.2 89.9 286.5 89.8Q286.9 89.6 287.4 89.6L287.4 89.6L287.8 89.6L287.8 91.8L287.2 91.8Q286.2 91.8 285.7 92.1Q285.2 92.4 285.2 93.1L285.2 93.1L285.2 98ZM290.5 88.7L290.5 88.7Q289.7 88.7 289.4 88.4Q289.1 88.0 289.1 87.5L289.1 87.5L289.1 87.2Q289.1 86.7 289.4 86.3Q289.7 86.0 290.5 86.0L290.5 86.0Q291.2 86.0 291.5 86.3Q291.8 86.7 291.8 87.2L291.8 87.2L291.8 87.5Q291.8 88.0 291.5 88.4Q291.2 88.7 290.5 88.7ZM289.3 98L289.3 89.6L291.6 89.6L291.6 98L289.3 98ZM298.2 98L296.8 98Q295.6 98 294.9 97.4Q294.3 96.8 294.3 95.6L294.3 95.6L294.3 91.4L293.1 91.4L293.1 89.6L293.7 89.6Q294.2 89.6 294.4 89.4Q294.5 89.1 294.5 88.7L294.5 88.7L294.5 87.3L296.7 87.3L296.7 89.6L298.3 89.6L298.3 91.4L296.7 91.4L296.7 96.2L298.2 96.2L298.2 98ZM300.0 98L300.0 86.2L302.4 86.2L302.4 91.0L302.4 91.0Q302.7 90.4 303.2 89.9Q303.8 89.4 304.8 89.4L304.8 89.4Q306.1 89.4 306.7 90.3Q307.4 91.1 307.4 92.7L307.4 92.7L307.4 98L305.0 98L305.0 92.9Q305.0 92.1 304.8 91.7Q304.5 91.3 303.9 91.3L303.9 91.3Q303.6 91.3 303.3 91.4Q303.0 91.5 302.8 91.6Q302.6 91.8 302.5 92.0Q302.4 92.3 302.4 92.6L302.4 92.6L302.4 98L300.0 98ZM311.9 98L309.5 98L309.5 89.6L311.9 89.6L311.9 91.0L312.0 91.0Q312.2 90.4 312.8 89.9Q313.3 89.4 314.2 89.4L314.2 89.4Q315.1 89.4 315.7 89.8Q316.3 90.3 316.6 91.1L316.6 91.1L316.6 91.1Q316.8 90.8 317.0 90.4Q317.2 90.1 317.6 89.9Q317.9 89.7 318.3 89.5Q318.7 89.4 319.2 89.4L319.2 89.4Q320.4 89.4 321.1 90.3Q321.7 91.1 321.7 92.7L321.7 92.7L321.7 98L319.3 98L319.3 92.9Q319.3 91.3 318.2 91.3L318.2 91.3Q317.7 91.3 317.2 91.6Q316.8 91.9 316.8 92.6L316.8 92.6L316.8 98L314.4 98L314.4 92.9Q314.4 91.3 313.3 91.3L313.3 91.3Q313.0 91.3 312.8 91.4Q312.5 91.5 312.3 91.6Q312.1 91.8 312.0 92.0Q311.9 92.3 311.9 92.6L311.9 92.6L311.9 98ZM328.8 98L328.8 96.6L328.7 96.6Q328.6 96.9 328.4 97.2Q328.2 97.5 327.9 97.7Q327.6 97.9 327.3 98.1Q326.9 98.2 326.4 98.2L326.4 98.2Q325.1 98.2 324.4 97.3Q323.7 96.5 323.7 94.9L323.7 94.9L323.7 89.6L326.1 89.6L326.1 94.7Q326.1 95.4 326.4 95.9Q326.6 96.3 327.3 96.3L327.3 96.3Q327.6 96.3 327.8 96.2Q328.1 96.1 328.3 96.0Q328.5 95.8 328.7 95.6Q328.8 95.4 328.8 95.1L328.8 95.1L328.8 89.6L331.2 89.6L331.2 98L328.8 98ZM336.2 98.2L336.2 98.2Q335.0 98.2 334.2 97.8Q333.3 97.4 332.7 96.7L332.7 96.7L334.1 95.3Q334.5 95.8 335.1 96.1Q335.6 96.4 336.3 96.4L336.3 96.4Q337.0 96.4 337.3 96.1Q337.5 95.9 337.5 95.6L337.5 95.6Q337.5 95.0 336.7 94.8L336.7 94.8L335.8 94.7Q332.9 94.4 332.9 92.1L332.9 92.1Q332.9 91.5 333.2 91.0Q333.4 90.5 333.8 90.2Q334.3 89.8 334.9 89.6Q335.5 89.4 336.2 89.4L336.2 89.4Q336.9 89.4 337.4 89.5Q337.9 89.6 338.3 89.8Q338.7 89.9 339.0 90.2Q339.3 90.4 339.6 90.7L339.6 90.7L338.3 92.1Q337.9 91.7 337.4 91.5Q336.9 91.2 336.3 91.2L336.3 91.2Q335.7 91.2 335.5 91.4Q335.2 91.6 335.2 92.0L335.2 92.0Q335.2 92.3 335.4 92.5Q335.6 92.7 336.1 92.7L336.1 92.7L337.0 92.9Q339.8 93.2 339.8 95.4L339.8 95.4Q339.8 96 339.6 96.5Q339.3 97.0 338.8 97.4Q338.4 97.8 337.7 98.0Q337.0 98.2 336.2 98.2Z "/></g><mask id="satori_om-id-3"><rect x="370" y="62" width="51" height="36" fill="#fff"/></mask><g  ><path fill="#0E7469" d="M405.4 81.2L399.6 87.0L398.3 85.7L400.7 83.3L402.1 82.1L402.1 82.0L399.3 82.2L385.5 82.2L385.5 80.3L399.3 80.3L402.1 80.4L402.1 80.4L400.7 79.2L398.3 76.8L399.6 75.4L405.4 81.2Z "/></g><defs><clipPath id="satori_bc-id-4"><path x="421" y="39" width="181" height="82" d="M433,39 h157 a12,12 0 0 1 12,12 v58 a12,12 0 0 1 -12,12 h-157 a12,12 0 0 1 -12,-12 v-58 a12,12 0 0 1 12,-12"/></clipPath></defs><mask id="satori_om-id-4"><rect x="423" y="41" width="177" height="78" fill="#fff"/><path width="181" height="82" fill="none" stroke="#000" stroke-width="4" d="M424.515,42.515 A12,12 0 0 1 433,39 h157 a12,12 0 0 1 12,12 v58 a12,12 0 0 1 -12,12 h-157 a12,12 0 0 1 -12,-12 v-58 A12,12 0 0 1 424.515,42.515"/></mask><path x="421" y="39" width="181" height="82" fill="#FFF3D8" d="M433,39 h157 a12,12 0 0 1 12,12 v58 a12,12 0 0 1 -12,12 h-157 a12,12 0 0 1 -12,-12 v-58 a12,12 0 0 1 12,-12"/><path width="181" height="82" clip-path="url(#satori_bc-id-4)" fill="none" stroke="#986816" stroke-width="4" d="M424.515,42.515 A12,12 0 0 1 433,39 h157 a12,12 0 0 1 12,12 v58 a12,12 0 0 1 -12,12 h-157 a12,12 0 0 1 -12,-12 v-58 A12,12 0 0 1 424.515,42.515"/><mask id="satori_om-id-4-0"><rect x="486" y="59" width="51" height="21" fill="#fff"/></mask><g  ><path fill="#1B1A17" d="M495.6 75L495.6 67.7L495.5 67.7L494.7 69.3L492.5 73.3L490.4 69.3L489.6 67.6L489.5 67.6L489.5 75L487.2 75L487.2 63.8L489.8 63.8L492.5 69.1L492.6 69.1L495.3 63.8L497.9 63.8L497.9 75L495.6 75ZM503.6 75.2L503.6 75.2Q502.7 75.2 502.0 74.9Q501.2 74.6 500.7 74.0Q500.2 73.4 500.0 72.6Q499.7 71.8 499.7 70.8L499.7 70.8Q499.7 69.8 500.0 69.0Q500.2 68.2 500.7 67.6Q501.2 67.0 502.0 66.7Q502.7 66.4 503.6 66.4L503.6 66.4Q504.5 66.4 505.3 66.7Q506 67.0 506.5 67.6Q507.0 68.2 507.3 69.0Q507.6 69.8 507.6 70.8L507.6 70.8Q507.6 71.8 507.3 72.6Q507.0 73.4 506.5 74.0Q506 74.6 505.3 74.9Q504.5 75.2 503.6 75.2ZM503.6 73.3L503.6 73.3Q504.3 73.3 504.7 72.9Q505.1 72.5 505.1 71.7L505.1 71.7L505.1 69.9Q505.1 69.1 504.7 68.7Q504.3 68.3 503.6 68.3L503.6 68.3Q502.9 68.3 502.5 68.7Q502.1 69.1 502.1 69.9L502.1 69.9L502.1 71.7Q502.1 72.5 502.5 72.9Q502.9 73.3 503.6 73.3ZM514.4 75L514.4 73.6L514.3 73.6Q514.2 73.9 514 74.2Q513.8 74.5 513.5 74.7Q513.2 75.0 512.8 75.1Q512.4 75.2 512.0 75.2L512.0 75.2Q510.4 75.2 509.6 74.1Q508.8 72.9 508.8 70.8L508.8 70.8Q508.8 68.6 509.6 67.5Q510.4 66.4 512.0 66.4L512.0 66.4Q512.9 66.4 513.5 66.9Q514.1 67.3 514.3 68.0L514.3 68.0L514.4 68.0L514.4 63.2L516.8 63.2L516.8 75L514.4 75ZM512.8 73.3L512.8 73.3Q513.5 73.3 513.9 72.9Q514.4 72.6 514.4 72.0L514.4 72.0L514.4 69.6Q514.4 69.0 513.9 68.7Q513.5 68.3 512.8 68.3L512.8 68.3Q512.2 68.3 511.7 68.8Q511.3 69.3 511.3 70.1L511.3 70.1L511.3 71.5Q511.3 72.3 511.7 72.8Q512.2 73.3 512.8 73.3ZM522.5 75.2L522.5 75.2Q521.5 75.2 520.8 74.9Q520 74.6 519.5 74Q519.0 73.4 518.7 72.6Q518.4 71.8 518.4 70.8L518.4 70.8Q518.4 69.8 518.7 69.0Q518.9 68.2 519.4 67.6Q520.0 67.0 520.7 66.7Q521.4 66.4 522.4 66.4L522.4 66.4Q523.4 66.4 524.2 66.8Q524.9 67.1 525.4 67.7Q525.8 68.3 526.1 69.1Q526.3 69.8 526.3 70.7L526.3 70.7L526.3 71.4L520.9 71.4L520.9 71.5Q520.9 72.4 521.3 72.8Q521.8 73.3 522.7 73.3L522.7 73.3Q523.5 73.3 523.9 73.0Q524.4 72.7 524.8 72.3L524.8 72.3L526.0 73.8Q525.4 74.5 524.5 74.8Q523.6 75.2 522.5 75.2ZM522.4 68.2L522.4 68.2Q521.7 68.2 521.3 68.6Q520.9 69.1 520.9 69.9L520.9 69.9L520.9 70.0L523.8 70.0L523.8 69.9Q523.8 69.1 523.5 68.6Q523.1 68.2 522.4 68.2ZM531.4 75L530.3 75Q529.1 75 528.5 74.4Q528.0 73.8 528.0 72.7L528.0 72.7L528.0 63.2L530.3 63.2L530.3 73.2L531.4 73.2L531.4 75ZM536.1 75L535.0 75Q533.8 75 533.2 74.4Q532.7 73.8 532.7 72.7L532.7 72.7L532.7 63.2L535.0 63.2L535.0 73.2L536.1 73.2L536.1 75Z "/></g><mask id="satori_om-id-4-1"><rect x="445" y="84" width="133" height="17" fill="#fff"/></mask><g  ><path fill="#5F594D" d="M448.6 97.2L448.6 97.2Q447.9 97.2 447.4 96.9Q446.8 96.7 446.4 96.2Q446.0 95.7 445.8 95.1Q445.6 94.5 445.6 93.6L445.6 93.6Q445.6 92.9 445.8 92.2Q446.0 91.6 446.4 91.1Q446.8 90.6 447.4 90.4Q447.9 90.1 448.6 90.1L448.6 90.1Q449.3 90.1 449.8 90.4Q450.4 90.6 450.7 91.1Q451.1 91.5 451.3 92.1Q451.5 92.7 451.5 93.4L451.5 93.4L451.5 93.9L446.7 93.9L446.7 94.2Q446.7 94.6 446.8 95.0Q447.0 95.4 447.2 95.7Q447.5 95.9 447.9 96.1Q448.2 96.2 448.7 96.2L448.7 96.2Q449.3 96.2 449.8 95.9Q450.3 95.6 450.5 95.1L450.5 95.1L451.3 95.6Q451.0 96.3 450.3 96.7Q449.6 97.2 448.6 97.2ZM448.6 91.0L448.6 91.0Q448.2 91.0 447.8 91.2Q447.5 91.3 447.2 91.6Q447.0 91.9 446.8 92.2Q446.7 92.6 446.7 93.0L446.7 93.0L446.7 93.1L450.4 93.1L450.4 93.0Q450.4 92.1 449.9 91.5Q449.4 91.0 448.6 91.0ZM453.8 88.7L453.8 88.7Q453.4 88.7 453.3 88.6Q453.1 88.4 453.1 88.1L453.1 88.1L453.1 88.0Q453.1 87.7 453.3 87.5Q453.4 87.4 453.8 87.4L453.8 87.4Q454.1 87.4 454.2 87.5Q454.4 87.7 454.4 88.0L454.4 88.0L454.4 88.1Q454.4 88.4 454.2 88.6Q454.1 88.7 453.8 88.7ZM453.2 97L453.2 90.3L454.3 90.3L454.3 97L453.2 97ZM457.5 97L456.5 97L456.5 90.3L457.5 90.3L457.5 91.4L457.6 91.4Q457.8 90.8 458.3 90.5Q458.7 90.1 459.5 90.1L459.5 90.1Q460.5 90.1 461.1 90.8Q461.7 91.5 461.7 92.7L461.7 92.7L461.7 97L460.7 97L460.7 92.9Q460.7 91.1 459.2 91.1L459.2 91.1Q458.9 91.1 458.6 91.2Q458.3 91.2 458.0 91.4Q457.8 91.5 457.7 91.8Q457.5 92.0 457.5 92.3L457.5 92.3L457.5 97ZM469.5 97.7L469.5 97.7Q469.5 98.8 468.7 99.3Q467.9 99.8 466.3 99.8L466.3 99.8Q464.7 99.8 464.0 99.3Q463.3 98.9 463.3 98.1L463.3 98.1Q463.3 97.6 463.6 97.3Q463.9 96.9 464.4 96.8L464.4 96.8L464.4 96.7Q463.8 96.4 463.8 95.7L463.8 95.7Q463.8 95.2 464.1 95.0Q464.4 94.7 465.0 94.6L465.0 94.6L465.0 94.5Q464.4 94.2 464.0 93.7Q463.7 93.2 463.7 92.5L463.7 92.5Q463.7 91.9 463.9 91.5Q464.1 91.1 464.4 90.8Q464.7 90.5 465.2 90.3Q465.6 90.1 466.2 90.1L466.2 90.1Q466.9 90.1 467.5 90.4L467.5 90.4L467.5 90.3Q467.5 89.9 467.7 89.6Q467.9 89.4 468.3 89.4L468.3 89.4L469.3 89.4L469.3 90.3L468.0 90.3L468.0 90.7Q468.4 91.0 468.6 91.5Q468.8 91.9 468.8 92.5L468.8 92.5Q468.8 93.0 468.6 93.4Q468.4 93.8 468.1 94.1Q467.7 94.4 467.3 94.6Q466.8 94.8 466.2 94.8L466.2 94.8Q465.9 94.8 465.6 94.7L465.6 94.7Q465.2 94.8 465.0 95.0Q464.7 95.1 464.7 95.5L464.7 95.5Q464.7 95.8 465.0 95.9Q465.3 96.0 465.7 96.0L465.7 96.0L467.2 96.0Q468.4 96.0 469.0 96.4Q469.5 96.9 469.5 97.7ZM468.6 97.8L468.6 97.8Q468.6 97.4 468.3 97.2Q467.9 96.9 467.2 96.9L467.2 96.9L464.9 96.9Q464.3 97.2 464.3 97.8L464.3 97.8Q464.3 98.3 464.6 98.6Q465.0 98.9 465.8 98.9L465.8 98.9L466.7 98.9Q467.6 98.9 468.1 98.6Q468.6 98.4 468.6 97.8ZM466.2 93.9L466.2 93.9Q466.9 93.9 467.3 93.6Q467.7 93.3 467.7 92.6L467.7 92.6L467.7 92.3Q467.7 91.6 467.3 91.3Q466.9 91.0 466.2 91.0L466.2 91.0Q465.6 91.0 465.2 91.3Q464.8 91.6 464.8 92.3L464.8 92.3L464.8 92.6Q464.8 93.3 465.2 93.6Q465.6 93.9 466.2 93.9ZM473.2 97.2L473.2 97.2Q472.5 97.2 471.9 96.9Q471.4 96.7 471.0 96.2Q470.6 95.7 470.4 95.1Q470.2 94.5 470.2 93.6L470.2 93.6Q470.2 92.9 470.4 92.2Q470.6 91.6 471.0 91.1Q471.4 90.6 471.9 90.4Q472.5 90.1 473.2 90.1L473.2 90.1Q473.9 90.1 474.4 90.4Q474.9 90.6 475.3 91.1Q475.7 91.5 475.9 92.1Q476.1 92.7 476.1 93.4L476.1 93.4L476.1 93.9L471.3 93.9L471.3 94.2Q471.3 94.6 471.4 95.0Q471.5 95.4 471.8 95.7Q472.0 95.9 472.4 96.1Q472.8 96.2 473.2 96.2L473.2 96.2Q473.9 96.2 474.4 95.9Q474.8 95.6 475.1 95.1L475.1 95.1L475.8 95.6Q475.5 96.3 474.8 96.7Q474.1 97.2 473.2 97.2ZM473.2 91.0L473.2 91.0Q472.8 91.0 472.4 91.2Q472.1 91.3 471.8 91.6Q471.5 91.9 471.4 92.2Q471.3 92.6 471.3 93.0L471.3 93.0L471.3 93.1L475.0 93.1L475.0 93.0Q475.0 92.1 474.5 91.5Q474.0 91.0 473.2 91.0ZM479.8 97.2L479.8 97.2Q478.9 97.2 478.2 96.8Q477.6 96.4 477.2 95.8L477.2 95.8L477.9 95.2Q478.3 95.7 478.8 96.0Q479.3 96.3 479.9 96.3L479.9 96.3Q480.6 96.3 480.9 96.0Q481.3 95.7 481.3 95.2L481.3 95.2Q481.3 94.8 481.0 94.5Q480.8 94.2 480.1 94.1L480.1 94.1L479.6 94.0Q479.1 94.0 478.7 93.8Q478.3 93.7 478.1 93.5Q477.8 93.3 477.6 92.9Q477.4 92.6 477.4 92.1L477.4 92.1Q477.4 91.6 477.6 91.2Q477.8 90.9 478.1 90.6Q478.4 90.4 478.9 90.3Q479.3 90.1 479.8 90.1L479.8 90.1Q480.6 90.1 481.2 90.4Q481.8 90.7 482.2 91.2L482.2 91.2L481.5 91.8Q481.3 91.5 480.8 91.3Q480.4 91.0 479.7 91.0L479.7 91.0Q479.1 91.0 478.8 91.3Q478.4 91.6 478.4 92.1L478.4 92.1Q478.4 92.6 478.8 92.8Q479.1 93.0 479.7 93.1L479.7 93.1L480.2 93.2Q481.4 93.3 481.8 93.8Q482.3 94.3 482.3 95.1L482.3 95.1Q482.3 96.0 481.6 96.6Q481.0 97.2 479.8 97.2ZM486.8 97L485.5 97Q485.0 97 484.7 96.7Q484.4 96.4 484.4 95.9L484.4 95.9L484.4 91.2L483.3 91.2L483.3 90.3L483.9 90.3Q484.3 90.3 484.4 90.2Q484.5 90.0 484.5 89.7L484.5 89.7L484.5 88.4L485.5 88.4L485.5 90.3L486.9 90.3L486.9 91.2L485.5 91.2L485.5 96.1L486.8 96.1L486.8 97ZM491.1 97.2L491.1 97.2Q490.4 97.2 489.8 96.9Q489.3 96.7 488.9 96.2Q488.5 95.7 488.3 95.1Q488.1 94.5 488.1 93.6L488.1 93.6Q488.1 92.9 488.3 92.2Q488.5 91.6 488.9 91.1Q489.3 90.6 489.8 90.4Q490.4 90.1 491.1 90.1L491.1 90.1Q491.7 90.1 492.3 90.4Q492.8 90.6 493.2 91.1Q493.6 91.5 493.8 92.1Q494.0 92.7 494.0 93.4L494.0 93.4L494.0 93.9L489.1 93.9L489.1 94.2Q489.1 94.6 489.3 95.0Q489.4 95.4 489.7 95.7Q489.9 95.9 490.3 96.1Q490.7 96.2 491.1 96.2L491.1 96.2Q491.8 96.2 492.2 95.9Q492.7 95.6 493.0 95.1L493.0 95.1L493.7 95.6Q493.4 96.3 492.7 96.7Q492.0 97.2 491.1 97.2ZM491.1 91.0L491.1 91.0Q490.6 91.0 490.3 91.2Q489.9 91.3 489.7 91.6Q489.4 91.9 489.3 92.2Q489.1 92.6 489.1 93.0L489.1 93.0L489.1 93.1L492.9 93.1L492.9 93.0Q492.9 92.1 492.4 91.5Q491.9 91.0 491.1 91.0ZM497.7 97L496.8 97Q496.2 97 496.0 96.7Q495.7 96.4 495.7 95.9L495.7 95.9L495.7 87.4L496.7 87.4L496.7 96.1L497.7 96.1L497.7 97ZM501.2 97L500.3 97Q499.7 97 499.4 96.7Q499.2 96.4 499.2 95.9L499.2 95.9L499.2 87.4L500.2 87.4L500.2 96.1L501.2 96.1L501.2 97ZM505.4 97L504.1 97Q503.6 97 503.3 96.7Q503.0 96.4 503.0 95.9L503.0 95.9L503.0 91.2L501.9 91.2L501.9 90.3L502.5 90.3Q502.9 90.3 503.0 90.2Q503.1 90.0 503.1 89.7L503.1 89.7L503.1 88.4L504.0 88.4L504.0 90.3L505.5 90.3L505.5 91.2L504.0 91.2L504.0 96.1L505.4 96.1L505.4 97ZM509.7 97.2L509.7 97.2Q509.0 97.2 508.4 96.9Q507.9 96.7 507.5 96.2Q507.1 95.7 506.9 95.1Q506.6 94.5 506.6 93.6L506.6 93.6Q506.6 92.9 506.9 92.2Q507.1 91.6 507.5 91.1Q507.9 90.6 508.4 90.4Q509.0 90.1 509.7 90.1L509.7 90.1Q510.3 90.1 510.9 90.4Q511.4 90.6 511.8 91.1Q512.2 91.5 512.4 92.1Q512.6 92.7 512.6 93.4L512.6 93.4L512.6 93.9L507.7 93.9L507.7 94.2Q507.7 94.6 507.9 95.0Q508.0 95.4 508.3 95.7Q508.5 95.9 508.9 96.1Q509.3 96.2 509.7 96.2L509.7 96.2Q510.4 96.2 510.8 95.9Q511.3 95.6 511.6 95.1L511.6 95.1L512.3 95.6Q512.0 96.3 511.3 96.7Q510.6 97.2 509.7 97.2ZM509.7 91.0L509.7 91.0Q509.2 91.0 508.9 91.2Q508.5 91.3 508.3 91.6Q508.0 91.9 507.9 92.2Q507.7 92.6 507.7 93.0L507.7 93.0L507.7 93.1L511.4 93.1L511.4 93.0Q511.4 92.1 511.0 91.5Q510.5 91.0 509.7 91.0Z M518.5 97L517.4 97L517.4 87.9L521.1 87.9Q522.3 87.9 522.9 88.6Q523.6 89.3 523.6 90.5L523.6 90.5Q523.6 91.7 522.9 92.4Q522.3 93.1 521.1 93.1L521.1 93.1L518.5 93.1L518.5 97ZM518.5 88.9L518.5 92.2L521.1 92.2Q521.7 92.2 522.1 91.8Q522.4 91.5 522.4 90.9L522.4 90.9L522.4 90.2Q522.4 89.6 522.1 89.2Q521.7 88.9 521.1 88.9L521.1 88.9L518.5 88.9ZM530.6 97L530.0 97Q529.4 97 529.1 96.7Q528.9 96.4 528.8 95.9L528.8 95.9L528.7 95.9Q528.5 96.5 528.0 96.8Q527.5 97.2 526.8 97.2L526.8 97.2Q525.7 97.2 525.2 96.6Q524.6 96.1 524.6 95.1L524.6 95.1Q524.6 94.2 525.3 93.7Q526.0 93.2 527.4 93.2L527.4 93.2L528.7 93.2L528.7 92.5Q528.7 91.8 528.4 91.4Q528.0 91.0 527.2 91.0L527.2 91.0Q526.5 91.0 526.1 91.3Q525.7 91.6 525.5 92.0L525.5 92.0L524.8 91.4Q525.1 90.9 525.7 90.5Q526.3 90.1 527.2 90.1L527.2 90.1Q528.4 90.1 529.1 90.7Q529.8 91.3 529.8 92.4L529.8 92.4L529.8 96.1L530.6 96.1L530.6 97ZM527.0 96.3L527.0 96.3Q527.4 96.3 527.7 96.2Q528.0 96.1 528.3 95.9Q528.5 95.8 528.6 95.5Q528.7 95.3 528.7 95.0L528.7 95.0L528.7 93.9L527.4 93.9Q526.5 93.9 526.1 94.2Q525.7 94.5 525.7 95.0L525.7 95.0L525.7 95.2Q525.7 95.7 526.0 96.0Q526.4 96.3 527.0 96.3ZM533.1 97L532.0 97L532.0 90.3L533.1 90.3L533.1 91.5L533.1 91.5Q533.3 91.0 533.8 90.7Q534.3 90.3 535.1 90.3L535.1 90.3L535.5 90.3L535.5 91.3L534.9 91.3Q534.0 91.3 533.5 91.7Q533.1 92.0 533.1 92.5L533.1 92.5L533.1 97ZM542.2 97L541.6 97Q541.0 97 540.8 96.7Q540.5 96.4 540.5 95.9L540.5 95.9L540.4 95.9Q540.2 96.5 539.7 96.8Q539.2 97.2 538.5 97.2L538.5 97.2Q537.4 97.2 536.8 96.6Q536.2 96.1 536.2 95.1L536.2 95.1Q536.2 94.2 536.9 93.7Q537.6 93.2 539.1 93.2L539.1 93.2L540.4 93.2L540.4 92.5Q540.4 91.8 540.0 91.4Q539.6 91.0 538.8 91.0L538.8 91.0Q538.2 91.0 537.8 91.3Q537.4 91.6 537.1 92.0L537.1 92.0L536.5 91.4Q536.8 90.9 537.4 90.5Q538.0 90.1 538.9 90.1L538.9 90.1Q540.1 90.1 540.8 90.7Q541.4 91.3 541.4 92.4L541.4 92.4L541.4 96.1L542.2 96.1L542.2 97ZM538.6 96.3L538.6 96.3Q539.0 96.3 539.4 96.2Q539.7 96.1 539.9 95.9Q540.1 95.8 540.3 95.5Q540.4 95.3 540.4 95.0L540.4 95.0L540.4 93.9L539.0 93.9Q538.1 93.9 537.7 94.2Q537.3 94.5 537.3 95.0L537.3 95.0L537.3 95.2Q537.3 95.7 537.7 96.0Q538.0 96.3 538.6 96.3ZM544.7 97L543.7 97L543.7 90.3L544.7 90.3L544.7 91.4L544.8 91.4Q544.9 91.1 545.1 90.9Q545.2 90.7 545.4 90.5Q545.6 90.3 545.9 90.2Q546.2 90.1 546.6 90.1L546.6 90.1Q547.3 90.1 547.8 90.5Q548.4 90.8 548.6 91.5L548.6 91.5L548.7 91.5Q548.9 91.0 549.4 90.5Q549.9 90.1 550.7 90.1L550.7 90.1Q551.7 90.1 552.3 90.8Q552.9 91.5 552.9 92.7L552.9 92.7L552.9 97L551.9 97L551.9 92.9Q551.9 92.0 551.5 91.5Q551.2 91.1 550.4 91.1L550.4 91.1Q550.1 91.1 549.8 91.2Q549.5 91.2 549.3 91.4Q549.1 91.5 548.9 91.8Q548.8 92.0 548.8 92.3L548.8 92.3L548.8 97L547.8 97L547.8 92.9Q547.8 92.0 547.4 91.5Q547.1 91.1 546.3 91.1L546.3 91.1Q546.0 91.1 545.7 91.2Q545.5 91.2 545.2 91.4Q545.0 91.5 544.9 91.8Q544.7 92.0 544.7 92.3L544.7 92.3L544.7 97ZM557.6 97.2L557.6 97.2Q556.9 97.2 556.3 96.9Q555.8 96.7 555.4 96.2Q555.0 95.7 554.8 95.1Q554.6 94.5 554.6 93.6L554.6 93.6Q554.6 92.9 554.8 92.2Q555.0 91.6 555.4 91.1Q555.8 90.6 556.3 90.4Q556.9 90.1 557.6 90.1L557.6 90.1Q558.2 90.1 558.8 90.4Q559.3 90.6 559.7 91.1Q560.1 91.5 560.3 92.1Q560.5 92.7 560.5 93.4L560.5 93.4L560.5 93.9L555.6 93.9L555.6 94.2Q555.6 94.6 555.8 95.0Q555.9 95.4 556.2 95.7Q556.4 95.9 556.8 96.1Q557.2 96.2 557.6 96.2L557.6 96.2Q558.3 96.2 558.7 95.9Q559.2 95.6 559.5 95.1L559.5 95.1L560.2 95.6Q559.9 96.3 559.2 96.7Q558.5 97.2 557.6 97.2ZM557.6 91.0L557.6 91.0Q557.1 91.0 556.8 91.2Q556.4 91.3 556.2 91.6Q555.9 91.9 555.8 92.2Q555.6 92.6 555.6 93.0L555.6 93.0L555.6 93.1L559.3 93.1L559.3 93.0Q559.3 92.1 558.9 91.5Q558.4 91.0 557.6 91.0ZM565.0 97L563.7 97Q563.1 97 562.8 96.7Q562.6 96.4 562.6 95.9L562.6 95.9L562.6 91.2L561.5 91.2L561.5 90.3L562.1 90.3Q562.4 90.3 562.5 90.2Q562.7 90.0 562.7 89.7L562.7 89.7L562.7 88.4L563.6 88.4L563.6 90.3L565.1 90.3L565.1 91.2L563.6 91.2L563.6 96.1L565.0 96.1L565.0 97ZM569.2 97.2L569.2 97.2Q568.5 97.2 568.0 96.9Q567.4 96.7 567.0 96.2Q566.6 95.7 566.4 95.1Q566.2 94.5 566.2 93.6L566.2 93.6Q566.2 92.9 566.4 92.2Q566.6 91.6 567.0 91.1Q567.4 90.6 568.0 90.4Q568.5 90.1 569.2 90.1L569.2 90.1Q569.9 90.1 570.4 90.4Q571.0 90.6 571.3 91.1Q571.7 91.5 571.9 92.1Q572.1 92.7 572.1 93.4L572.1 93.4L572.1 93.9L567.3 93.9L567.3 94.2Q567.3 94.6 567.4 95.0Q567.6 95.4 567.8 95.7Q568.1 95.9 568.4 96.1Q568.8 96.2 569.3 96.2L569.3 96.2Q569.9 96.2 570.4 95.9Q570.9 95.6 571.1 95.1L571.1 95.1L571.9 95.6Q571.5 96.3 570.9 96.7Q570.2 97.2 569.2 97.2ZM569.2 91.0L569.2 91.0Q568.8 91.0 568.4 91.2Q568.1 91.3 567.8 91.6Q567.6 91.9 567.4 92.2Q567.3 92.6 567.3 93.0L567.3 93.0L567.3 93.1L571.0 93.1L571.0 93.0Q571.0 92.1 570.5 91.5Q570.0 91.0 569.2 91.0ZM574.9 97L573.8 97L573.8 90.3L574.9 90.3L574.9 91.5L574.9 91.5Q575.1 91.0 575.6 90.7Q576.1 90.3 576.9 90.3L576.9 90.3L577.3 90.3L577.3 91.3L576.7 91.3Q575.8 91.3 575.3 91.7Q574.9 92.0 574.9 92.5L574.9 92.5L574.9 97Z "/></g></svg>