<svg data-min-font="15" width="600" height="180" viewBox="0 0 600 180" xmlns="http://www.w3.org/2000/svg"><mask id="satori_om-id"><rect x="0" y="0" width="600" height="180" fill="#fff"/></mask><mask id="satori_om-id-0"><rect x="20" y="16" width="560" height="22" fill="#fff"/></mask><g  ><path fill="#1B1A17" d="M25.2 33.2L25.2 33.2Q23.6 33.2 22.5 32.7Q21.4 32.1 20.6 31.3L20.6 31.3L22.3 29.6Q23.6 30.9 25.3 30.9L25.3 30.9Q26.3 30.9 26.7 30.5Q27.2 30.1 27.2 29.5L27.2 29.5Q27.2 29.0 26.9 28.7Q26.6 28.3 25.8 28.2L25.8 28.2L24.6 28.1Q22.8 27.8 21.9 26.9Q21.0 26.0 21.0 24.5L21.0 24.5Q21.0 23.7 21.3 23.1Q21.6 22.4 22.2 21.9Q22.8 21.5 23.6 21.2Q24.4 20.9 25.5 20.9L25.5 20.9Q26.8 20.9 27.8 21.4Q28.8 21.8 29.6 22.6L29.6 22.6L27.9 24.3Q27.4 23.8 26.8 23.5Q26.2 23.2 25.3 23.2L25.3 23.2Q24.4 23.2 24.0 23.5Q23.6 23.8 23.6 24.4L23.6 24.4Q23.6 25.0 23.9 25.2Q24.3 25.5 25.0 25.6L25.0 25.6L26.2 25.8Q28.0 26.1 28.9 27.0Q29.8 27.8 29.8 29.3L29.8 29.3Q29.8 30.2 29.5 30.9Q29.2 31.6 28.6 32.1Q28.0 32.6 27.1 32.9Q26.3 33.2 25.2 33.2ZM37.1 33L37.1 31.5L37.0 31.5Q36.8 31.8 36.7 32.1Q36.5 32.5 36.1 32.7Q35.8 32.9 35.4 33.1Q35.0 33.2 34.5 33.2L34.5 33.2Q33.1 33.2 32.4 32.3Q31.7 31.4 31.7 29.7L31.7 29.7L31.7 24.1L34.2 24.1L34.2 29.5Q34.2 30.3 34.5 30.7Q34.8 31.2 35.5 31.2L35.5 31.2Q35.8 31.2 36.0 31.1Q36.3 31.0 36.6 30.8Q36.8 30.7 36.9 30.4Q37.1 30.2 37.1 29.9L37.1 29.9L37.1 24.1L39.6 24.1L39.6 33L37.1 33ZM41.9 36.4L41.9 24.1L44.4 24.1L44.4 25.6L44.5 25.6Q44.7 24.8 45.4 24.3Q46.0 23.9 46.9 23.9L46.9 23.9Q48.6 23.9 49.5 25.1Q50.3 26.3 50.3 28.5L50.3 28.5Q50.3 30.8 49.5 32.0Q48.6 33.2 46.9 33.2L46.9 33.2Q46.5 33.2 46.1 33.1Q45.7 32.9 45.4 32.7Q45.1 32.5 44.8 32.2Q44.6 31.9 44.5 31.5L44.5 31.5L44.4 31.5L44.4 36.4L41.9 36.4ZM46.1 31.2L46.1 31.2Q46.8 31.2 47.3 30.7Q47.7 30.2 47.7 29.3L47.7 29.3L47.7 27.8Q47.7 26.9 47.3 26.4Q46.8 25.9 46.1 25.9L46.1 25.9Q45.4 25.9 44.9 26.3Q44.4 26.6 44.4 27.2L44.4 27.2L44.4 29.9Q44.4 30.5 44.9 30.8Q45.4 31.2 46.1 31.2ZM52.2 36.4L52.2 24.1L54.8 24.1L54.8 25.6L54.9 25.6Q55.0 24.8 55.7 24.3Q56.4 23.9 57.2 23.9L57.2 23.9Q58.9 23.9 59.8 25.1Q60.7 26.3 60.7 28.5L60.7 28.5Q60.7 30.8 59.8 32.0Q58.9 33.2 57.2 33.2L57.2 33.2Q56.8 33.2 56.4 33.1Q56.0 32.9 55.7 32.7Q55.4 32.5 55.2 32.2Q55.0 31.9 54.9 31.5L54.9 31.5L54.8 31.5L54.8 36.4L52.2 36.4ZM56.4 31.2L56.4 31.2Q57.1 31.2 57.6 30.7Q58.1 30.2 58.1 29.3L58.1 29.3L58.1 27.8Q58.1 26.9 57.6 26.4Q57.1 25.9 56.4 25.9L56.4 25.9Q55.7 25.9 55.2 26.3Q54.8 26.6 54.8 27.2L54.8 27.2L54.8 29.9Q54.8 30.5 55.2 30.8Q55.7 31.2 56.4 31.2ZM66.2 33.2L66.2 33.2Q65.2 33.2 64.4 32.9Q63.7 32.6 63.1 31.9Q62.6 31.3 62.3 30.5Q62.0 29.6 62.0 28.5L62.0 28.5Q62.0 27.5 62.3 26.6Q62.6 25.7 63.1 25.1Q63.7 24.5 64.4 24.2Q65.2 23.9 66.2 23.9L66.2 23.9Q67.2 23.9 68.0 24.2Q68.7 24.5 69.3 25.1Q69.8 25.7 70.1 26.6Q70.4 27.5 70.4 28.5L70.4 28.5Q70.4 29.6 70.1 30.5Q69.8 31.3 69.3 31.9Q68.7 32.6 68.0 32.9Q67.2 33.2 66.2 33.2ZM66.2 31.2L66.2 31.2Q67.0 31.2 67.4 30.8Q67.8 30.3 67.8 29.4L67.8 29.4L67.8 27.6Q67.8 26.8 67.4 26.3Q67.0 25.9 66.2 25.9L66.2 25.9Q65.5 25.9 65.0 26.3Q64.6 26.8 64.6 27.6L64.6 27.6L64.6 29.4Q64.6 30.3 65.0 30.8Q65.5 31.2 66.2 31.2ZM75.2 33.2L75.2 33.2Q73.9 33.2 73.0 32.8Q72.1 32.4 71.4 31.6L71.4 31.6L72.9 30.1Q73.4 30.6 74.0 30.9Q74.6 31.2 75.3 31.2L75.3 31.2Q76.0 31.2 76.3 31.0Q76.6 30.8 76.6 30.4L76.6 30.4Q76.6 29.8 75.7 29.7L75.7 29.7L74.7 29.5Q71.7 29.2 71.7 26.8L71.7 26.8Q71.7 26.1 72.0 25.6Q72.2 25.1 72.7 24.7Q73.1 24.3 73.8 24.1Q74.4 23.9 75.2 23.9L75.2 23.9Q75.9 23.9 76.4 24.0Q77.0 24.1 77.4 24.2Q77.8 24.4 78.1 24.7Q78.5 24.9 78.8 25.3L78.8 25.3L77.4 26.7Q77.0 26.3 76.4 26.1Q75.9 25.8 75.3 25.8L75.3 25.8Q74.7 25.8 74.4 26.0Q74.1 26.2 74.1 26.6L74.1 26.6Q74.1 26.9 74.3 27.1Q74.5 27.3 75.1 27.4L75.1 27.4L76.1 27.5Q79.0 27.9 79.0 30.2L79.0 30.2Q79.0 30.9 78.8 31.4Q78.5 32.0 78.0 32.4Q77.5 32.8 76.8 33.0Q76.1 33.2 75.2 33.2ZM84.5 33.2L84.5 33.2Q83.4 33.2 82.6 32.9Q81.8 32.5 81.3 31.9Q80.7 31.3 80.5 30.5Q80.2 29.6 80.2 28.5L80.2 28.5Q80.2 27.5 80.5 26.6Q80.7 25.8 81.3 25.1Q81.8 24.5 82.6 24.2Q83.4 23.9 84.4 23.9L84.4 23.9Q85.5 23.9 86.3 24.2Q87.0 24.6 87.5 25.2Q88.1 25.9 88.3 26.7Q88.5 27.5 88.5 28.4L88.5 28.4L88.5 29.2L82.8 29.2L82.8 29.3Q82.8 30.2 83.3 30.7Q83.7 31.2 84.8 31.2L84.8 31.2Q85.5 31.2 86.0 30.9Q86.5 30.6 86.9 30.2L86.9 30.2L88.2 31.7Q87.6 32.4 86.6 32.8Q85.7 33.2 84.5 33.2ZM84.4 25.7L84.4 25.7Q83.6 25.7 83.2 26.2Q82.8 26.7 82.8 27.6L82.8 27.6L82.8 27.7L85.9 27.7L85.9 27.5Q85.9 26.7 85.5 26.2Q85.2 25.7 84.4 25.7ZM91.9 33.2L91.9 33.2Q91.2 33.2 90.8 32.8Q90.4 32.4 90.4 31.8L90.4 31.8L90.4 31.5Q90.4 30.9 90.8 30.5Q91.2 30.1 91.9 30.1L91.9 30.1Q92.7 30.1 93.1 30.5Q93.4 30.9 93.4 31.5L93.4 31.5L93.4 31.8Q93.4 32.4 93.1 32.8Q92.7 33.2 91.9 33.2ZM91.9 26.9L91.9 26.9Q91.2 26.9 90.8 26.6Q90.4 26.2 90.4 25.6L90.4 25.6L90.4 25.2Q90.4 24.7 90.8 24.3Q91.2 23.9 91.9 23.9L91.9 23.9Q92.7 23.9 93.1 24.3Q93.4 24.7 93.4 25.2L93.4 25.2L93.4 25.6Q93.4 26.2 93.1 26.6Q92.7 26.9 91.9 26.9Z M107.9 33L106.5 33Q105.8 33 105.4 32.6Q104.9 32.1 104.8 31.4L104.8 31.4L104.7 31.4Q104.5 32.3 103.8 32.8Q103.1 33.2 102.1 33.2L102.1 33.2Q100.8 33.2 100.0 32.5Q99.3 31.8 99.3 30.6L99.3 30.6Q99.3 29.2 100.4 28.5Q101.4 27.8 103.1 27.8L103.1 27.8L104.6 27.8L104.6 27.3Q104.6 26.6 104.2 26.2Q103.9 25.8 103.1 25.8L103.1 25.8Q102.3 25.8 101.9 26.2Q101.4 26.5 101.2 26.9L101.2 26.9L99.7 25.6Q100.2 24.8 101.0 24.3Q101.9 23.9 103.3 23.9L103.3 23.9Q105.2 23.9 106.1 24.7Q107.1 25.5 107.1 27.1L107.1 27.1L107.1 31.0L107.9 31.0L107.9 33ZM103.0 31.5L103.0 31.5Q103.7 31.5 104.1 31.2Q104.6 30.9 104.6 30.3L104.6 30.3L104.6 29.2L103.3 29.2Q101.9 29.2 101.9 30.2L101.9 30.2L101.9 30.5Q101.9 31.0 102.2 31.2Q102.5 31.5 103.0 31.5Z M117.2 33.2L117.2 33.2Q116.2 33.2 115.4 32.9Q114.6 32.5 114.1 31.9Q113.6 31.3 113.3 30.5Q113.0 29.6 113.0 28.5L113.0 28.5Q113.0 27.5 113.3 26.6Q113.6 25.7 114.1 25.1Q114.6 24.5 115.4 24.2Q116.2 23.9 117.2 23.9L117.2 23.9Q118.6 23.9 119.5 24.5Q120.4 25.1 120.8 26.2L120.8 26.2L118.7 27.1Q118.6 26.6 118.2 26.2Q117.9 25.9 117.2 25.9L117.2 25.9Q116.4 25.9 116.0 26.4Q115.7 26.9 115.7 27.7L115.7 27.7L115.7 29.4Q115.7 30.2 116.0 30.7Q116.4 31.2 117.2 31.2L117.2 31.2Q117.9 31.2 118.3 30.8Q118.7 30.5 118.9 29.9L118.9 29.9L120.8 30.7Q120.4 32.0 119.5 32.6Q118.5 33.2 117.2 33.2ZM125.9 33.2L125.9 33.2Q124.9 33.2 124.2 32.9Q123.4 32.6 122.9 31.9Q122.3 31.3 122.0 30.5Q121.7 29.6 121.7 28.5L121.7 28.5Q121.7 27.5 122.0 26.6Q122.3 25.7 122.9 25.1Q123.4 24.5 124.2 24.2Q124.9 23.9 125.9 23.9L125.9 23.9Q126.9 23.9 127.7 24.2Q128.5 24.5 129.0 25.1Q129.5 25.7 129.8 26.6Q130.1 27.5 130.1 28.5L130.1 28.5Q130.1 29.6 129.8 30.5Q129.5 31.3 129.0 31.9Q128.5 32.6 127.7 32.9Q126.9 33.2 125.9 33.2ZM125.9 31.2L125.9 31.2Q126.7 31.2 127.1 30.8Q127.5 30.3 127.5 29.4L127.5 29.4L127.5 27.6Q127.5 26.8 127.1 26.3Q126.7 25.9 125.9 25.9L125.9 25.9Q125.2 25.9 124.8 26.3Q124.4 26.8 124.4 27.6L124.4 27.6L124.4 29.4Q124.4 30.3 124.8 30.8Q125.2 31.2 125.9 31.2ZM134.4 33L131.9 33L131.9 24.1L134.4 24.1L134.4 25.6L134.5 25.6Q134.7 24.9 135.3 24.4Q135.9 23.9 137.0 23.9L137.0 23.9Q138.4 23.9 139.1 24.8Q139.8 25.7 139.8 27.4L139.8 27.4L139.8 33L137.3 33L137.3 27.6Q137.3 26.7 137.0 26.3Q136.7 25.9 136.0 25.9L136.0 25.9Q135.7 25.9 135.4 26.0Q135.1 26.1 134.9 26.2Q134.7 26.4 134.5 26.7Q134.4 26.9 134.4 27.2L134.4 27.2L134.4 33ZM146.6 33L145.2 33Q143.8 33 143.2 32.3Q142.5 31.7 142.5 30.4L142.5 30.4L142.5 26.0L141.2 26.0L141.2 24.1L141.9 24.1Q142.4 24.1 142.6 23.8Q142.8 23.6 142.8 23.1L142.8 23.1L142.8 21.7L145.0 21.7L145.0 24.1L146.8 24.1L146.8 26.0L145.0 26.0L145.0 31.0L146.6 31.0L146.6 33ZM152.2 33.2L152.2 33.2Q151.2 33.2 150.4 32.9Q149.6 32.5 149.0 31.9Q148.5 31.3 148.2 30.5Q147.9 29.6 147.9 28.5L147.9 28.5Q147.9 27.5 148.2 26.6Q148.5 25.8 149.0 25.1Q149.5 24.5 150.3 24.2Q151.1 23.9 152.1 23.9L152.1 23.9Q153.2 23.9 154.0 24.2Q154.8 24.6 155.3 25.2Q155.8 25.9 156.0 26.7Q156.2 27.5 156.2 28.4L156.2 28.4L156.2 29.2L150.5 29.2L150.5 29.3Q150.5 30.2 151.0 30.7Q151.5 31.2 152.5 31.2L152.5 31.2Q153.3 31.2 153.8 30.9Q154.2 30.6 154.7 30.2L154.7 30.2L155.9 31.7Q155.3 32.4 154.4 32.8Q153.4 33.2 152.2 33.2ZM152.1 25.7L152.1 25.7Q151.4 25.7 150.9 26.2Q150.5 26.7 150.5 27.6L150.5 27.6L150.5 27.7L153.6 27.7L153.6 27.5Q153.6 26.7 153.3 26.2Q152.9 25.7 152.1 25.7ZM159.5 33L156.9 33L159.8 28.5L156.9 24.1L159.8 24.1L161.4 26.9L161.5 26.9L163.1 24.1L165.8 24.1L162.8 28.5L165.8 33L162.9 33L161.2 30.1L161.2 30.1L159.5 33ZM171.9 33L170.4 33Q169.1 33 168.4 32.3Q167.7 31.7 167.7 30.4L167.7 30.4L167.7 26.0L166.5 26.0L166.5 24.1L167.1 24.1Q167.6 24.1 167.8 23.8Q168.0 23.6 168.0 23.1L168.0 23.1L168.0 21.7L170.3 21.7L170.3 24.1L172.0 24.1L172.0 26.0L170.3 26.0L170.3 31.0L171.9 31.0L171.9 33Z M179.4 33L176.9 24.1L179.4 24.1L180.2 27.7L180.9 30.4L180.9 30.4L181.6 27.7L182.7 24.1L185.0 24.1L186.0 27.7L186.7 30.4L186.8 30.4L187.4 27.7L188.3 24.1L190.6 24.1L188.1 33L185.5 33L184.4 29.2L183.8 26.9L183.7 26.9L183.1 29.2L182.0 33L179.4 33ZM193.3 23.1L193.3 23.1Q192.6 23.1 192.2 22.8Q191.9 22.4 191.9 21.9L191.9 21.9L191.9 21.5Q191.9 21.0 192.2 20.6Q192.6 20.3 193.3 20.3L193.3 20.3Q194.1 20.3 194.5 20.6Q194.8 21.0 194.8 21.5L194.8 21.5L194.8 21.9Q194.8 22.4 194.5 22.8Q194.1 23.1 193.3 23.1ZM192.1 33L192.1 24.1L194.6 24.1L194.6 33L192.1 33ZM199.5 33L197.0 33L197.0 24.1L199.5 24.1L199.5 25.6L199.6 25.6Q199.8 24.9 200.4 24.4Q201.0 23.9 202.1 23.9L202.1 23.9Q203.4 23.9 204.1 24.8Q204.8 25.7 204.8 27.4L204.8 27.4L204.8 33L202.3 33L202.3 27.6Q202.3 26.7 202.1 26.3Q201.8 25.9 201.1 25.9L201.1 25.9Q200.8 25.9 200.5 26.0Q200.2 26.1 200.0 26.2Q199.7 26.4 199.6 26.7Q199.5 26.9 199.5 27.2L199.5 27.2L199.5 33ZM212.6 33L212.6 31.5L212.5 31.5Q212.4 31.9 212.2 32.2Q211.9 32.5 211.6 32.7Q211.3 32.9 210.9 33.1Q210.5 33.2 210.1 33.2L210.1 33.2Q208.4 33.2 207.5 32.0Q206.6 30.8 206.6 28.5L206.6 28.5Q206.6 26.3 207.5 25.1Q208.4 23.9 210.1 23.9L210.1 23.9Q210.9 23.9 211.6 24.3Q212.3 24.8 212.5 25.6L212.5 25.6L212.6 25.6L212.6 20.4L215.1 20.4L215.1 33L212.6 33ZM210.9 31.2L210.9 31.2Q211.6 31.2 212.1 30.8Q212.6 30.5 212.6 29.9L212.6 29.9L212.6 27.2Q212.6 26.6 212.1 26.3Q211.6 25.9 210.9 25.9L210.9 25.9Q210.2 25.9 209.7 26.4Q209.3 26.9 209.3 27.8L209.3 27.8L209.3 29.3Q209.3 30.2 209.7 30.7Q210.2 31.2 210.9 31.2ZM221.0 33.2L221.0 33.2Q220.1 33.2 219.3 32.9Q218.5 32.6 218.0 31.9Q217.4 31.3 217.1 30.5Q216.9 29.6 216.9 28.5L216.9 28.5Q216.9 27.5 217.1 26.6Q217.4 25.7 218.0 25.1Q218.5 24.5 219.3 24.2Q220.1 23.9 221.0 23.9L221.0 23.9Q222.0 23.9 222.8 24.2Q223.6 24.5 224.1 25.1Q224.6 25.7 224.9 26.6Q225.2 27.5 225.2 28.5L225.2 28.5Q225.2 29.6 224.9 30.5Q224.6 31.3 224.1 31.9Q223.6 32.6 222.8 32.9Q222.0 33.2 221.0 33.2ZM221.0 31.2L221.0 31.2Q221.8 31.2 222.2 30.8Q222.6 30.3 222.6 29.4L222.6 29.4L222.6 27.6Q222.6 26.8 222.2 26.3Q221.8 25.9 221.0 25.9L221.0 25.9Q220.3 25.9 219.9 26.3Q219.5 26.8 219.5 27.6L219.5 27.6L219.5 29.4Q219.5 30.3 219.9 30.8Q220.3 31.2 221.0 31.2ZM228.5 33L226.0 24.1L228.4 24.1L229.3 27.7L229.9 30.4L230.0 30.4L230.7 27.7L231.7 24.1L234.0 24.1L235.0 27.7L235.8 30.4L235.8 30.4L236.4 27.7L237.3 24.1L239.6 24.1L237.2 33L234.5 33L233.5 29.2L232.8 26.9L232.8 26.9L232.2 29.2L231.1 33L228.5 33Z M248.8 33.2L248.8 33.2Q247.8 33.2 247.0 32.9Q246.2 32.6 245.7 31.9Q245.2 31.3 244.9 30.5Q244.6 29.6 244.6 28.5L244.6 28.5Q244.6 27.5 244.9 26.6Q245.2 25.7 245.7 25.1Q246.2 24.5 247.0 24.2Q247.8 23.9 248.8 23.9L248.8 23.9Q249.8 23.9 250.5 24.2Q251.3 24.5 251.8 25.1Q252.4 25.7 252.7 26.6Q253.0 27.5 253.0 28.5L253.0 28.5Q253.0 29.6 252.7 30.5Q252.4 31.3 251.8 31.9Q251.3 32.6 250.5 32.9Q249.8 33.2 248.8 33.2ZM248.8 31.2L248.8 31.2Q249.5 31.2 249.9 30.8Q250.3 30.3 250.3 29.4L250.3 29.4L250.3 27.6Q250.3 26.8 249.9 26.3Q249.5 25.9 248.8 25.9L248.8 25.9Q248.0 25.9 247.6 26.3Q247.2 26.8 247.2 27.6L247.2 27.6L247.2 29.4Q247.2 30.3 247.6 30.8Q248.0 31.2 248.8 31.2ZM255.1 33L255.1 26.0L253.8 26.0L253.8 24.1L255.1 24.1L255.1 23.0Q255.1 21.7 255.8 21.1Q256.4 20.4 257.7 20.4L257.7 20.4L259.4 20.4L259.4 22.4L257.6 22.4L257.6 24.1L259.4 24.1L259.4 26.0L257.6 26.0L257.6 33L255.1 33Z M273.5 33L265.2 33L265.2 30.9L268.4 30.9L268.4 23.0L268.3 23.0L265.8 26.1L264.2 24.9L267.0 21.1L271.0 21.1L271.0 30.9L273.5 30.9L273.5 33ZM278.9 33.2L278.9 33.2Q276.6 33.2 275.5 31.6Q274.3 30.0 274.3 27.1L274.3 27.1Q274.3 24.2 275.5 22.5Q276.6 20.9 278.9 20.9L278.9 20.9Q281.2 20.9 282.4 22.5Q283.5 24.2 283.5 27.1L283.5 27.1Q283.5 30.0 282.4 31.6Q281.2 33.2 278.9 33.2ZM278.9 31.0L278.9 31.0Q279.9 31.0 280.3 30.3Q280.7 29.5 280.7 28.2L280.7 28.2L280.7 25.9Q280.7 24.6 280.3 23.8Q279.9 23.1 278.9 23.1L278.9 23.1Q277.9 23.1 277.5 23.8Q277.1 24.6 277.1 25.9L277.1 25.9L277.1 28.2Q277.1 29.5 277.5 30.3Q277.9 31.0 278.9 31.0ZM289.1 33.2L289.1 33.2Q286.8 33.2 285.7 31.6Q284.5 30.0 284.5 27.1L284.5 27.1Q284.5 24.2 285.7 22.5Q286.8 20.9 289.1 20.9L289.1 20.9Q291.4 20.9 292.6 22.5Q293.7 24.2 293.7 27.1L293.7 27.1Q293.7 30.0 292.6 31.6Q291.4 33.2 289.1 33.2ZM289.1 31.0L289.1 31.0Q290.1 31.0 290.5 30.3Q290.9 29.5 290.9 28.2L290.9 28.2L290.9 25.9Q290.9 24.6 290.5 23.8Q290.1 23.1 289.1 23.1L289.1 23.1Q288.1 23.1 287.7 23.8Q287.3 24.6 287.3 25.9L287.3 25.9L287.3 28.2Q287.3 29.5 287.7 30.3Q288.1 31.0 289.1 31.0ZM296.8 30.1L296.8 30.1Q297.6 30.1 298.0 30.5Q298.3 30.9 298.3 31.5L298.3 31.5L298.3 31.8Q298.3 32.9 297.8 33.9Q297.3 34.9 296.5 35.5L296.5 35.5L294.8 35.5Q295.4 34.9 295.8 34.4Q296.3 33.8 296.5 33.2L296.5 33.2Q295.9 33.1 295.6 32.7Q295.3 32.3 295.3 31.8L295.3 31.8L295.3 31.5Q295.3 30.9 295.7 30.5Q296.1 30.1 296.8 30.1ZM304.6 33.2L304.6 33.2Q302.3 33.2 301.1 31.6Q300.0 30.0 300.0 27.1L300.0 27.1Q300.0 24.2 301.1 22.5Q302.3 20.9 304.6 20.9L304.6 20.9Q306.9 20.9 308.0 22.5Q309.2 24.2 309.2 27.1L309.2 27.1Q309.2 30.0 308.0 31.6Q306.9 33.2 304.6 33.2ZM304.6 31.0L304.6 31.0Q305.6 31.0 306.0 30.3Q306.4 29.5 306.4 28.2L306.4 28.2L306.4 25.9Q306.4 24.6 306.0 23.8Q305.6 23.1 304.6 23.1L304.6 23.1Q303.6 23.1 303.2 23.8Q302.8 24.6 302.8 25.9L302.8 25.9L302.8 28.2Q302.8 29.5 303.2 30.3Q303.6 31.0 304.6 31.0ZM314.8 33.2L314.8 33.2Q312.5 33.2 311.3 31.6Q310.2 30.0 310.2 27.1L310.2 27.1Q310.2 24.2 311.3 22.5Q312.5 20.9 314.8 20.9L314.8 20.9Q317.1 20.9 318.2 22.5Q319.4 24.2 319.4 27.1L319.4 27.1Q319.4 30.0 318.2 31.6Q317.1 33.2 314.8 33.2ZM314.8 31.0L314.8 31.0Q315.8 31.0 316.2 30.3Q316.6 29.5 316.6 28.2L316.6 28.2L316.6 25.9Q316.6 24.6 316.2 23.8Q315.8 23.1 314.8 23.1L314.8 23.1Q313.8 23.1 313.4 23.8Q313.0 24.6 313.0 25.9L313.0 25.9L313.0 28.2Q313.0 29.5 313.4 30.3Q313.8 31.0 314.8 31.0ZM325.0 33.2L325.0 33.2Q322.7 33.2 321.5 31.6Q320.4 30.0 320.4 27.1L320.4 27.1Q320.4 24.2 321.5 22.5Q322.7 20.9 325.0 20.9L325.0 20.9Q327.3 20.9 328.4 22.5Q329.6 24.2 329.6 27.1L329.6 27.1Q329.6 30.0 328.4 31.6Q327.3 33.2 325.0 33.2ZM325.0 31.0L325.0 31.0Q326.0 31.0 326.4 30.3Q326.8 29.5 326.8 28.2L326.8 28.2L326.8 25.9Q326.8 24.6 326.4 23.8Q326.0 23.1 325.0 23.1L325.0 23.1Q324.0 23.1 323.6 23.8Q323.2 24.6 323.2 25.9L323.2 25.9L323.2 28.2Q323.2 29.5 323.6 30.3Q324.0 31.0 325.0 31.0Z M339.9 33L338.4 33Q337.1 33 336.4 32.3Q335.7 31.7 335.7 30.4L335.7 30.4L335.7 26.0L334.5 26.0L334.5 24.1L335.1 24.1Q335.6 24.1 335.8 23.8Q336.0 23.6 336.0 23.1L336.0 23.1L336.0 21.7L338.3 21.7L338.3 24.1L340.0 24.1L340.0 26.0L338.3 26.0L338.3 31.0L339.9 31.0L339.9 33ZM345.3 33.2L345.3 33.2Q344.3 33.2 343.6 32.9Q342.8 32.6 342.3 31.9Q341.7 31.3 341.4 30.5Q341.1 29.6 341.1 28.5L341.1 28.5Q341.1 27.5 341.4 26.6Q341.7 25.7 342.3 25.1Q342.8 24.5 343.6 24.2Q344.3 23.9 345.3 23.9L345.3 23.9Q346.3 23.9 347.1 24.2Q347.9 24.5 348.4 25.1Q348.9 25.7 349.2 26.6Q349.5 27.5 349.5 28.5L349.5 28.5Q349.5 29.6 349.2 30.5Q348.9 31.3 348.4 31.9Q347.9 32.6 347.1 32.9Q346.3 33.2 345.3 33.2ZM345.3 31.2L345.3 31.2Q346.1 31.2 346.5 30.8Q346.9 30.3 346.9 29.4L346.9 29.4L346.9 27.6Q346.9 26.8 346.5 26.3Q346.1 25.9 345.3 25.9L345.3 25.9Q344.6 25.9 344.2 26.3Q343.8 26.8 343.8 27.6L343.8 27.6L343.8 29.4Q343.8 30.3 344.2 30.8Q344.6 31.2 345.3 31.2ZM351.3 33L351.3 20.4L353.8 20.4L353.8 27.8L353.9 27.8L355.0 26.2L356.8 24.1L359.6 24.1L356.6 27.5L359.9 33L356.9 33L354.9 29.2L353.8 30.5L353.8 33L351.3 33ZM364.4 33.2L364.4 33.2Q363.3 33.2 362.6 32.9Q361.8 32.5 361.2 31.9Q360.6 31.3 360.4 30.5Q360.1 29.6 360.1 28.5L360.1 28.5Q360.1 27.5 360.4 26.6Q360.6 25.8 361.2 25.1Q361.7 24.5 362.5 24.2Q363.3 23.9 364.3 23.9L364.3 23.9Q365.4 23.9 366.2 24.2Q367.0 24.6 367.5 25.2Q368.0 25.9 368.2 26.7Q368.4 27.5 368.4 28.4L368.4 28.4L368.4 29.2L362.7 29.2L362.7 29.3Q362.7 30.2 363.2 30.7Q363.6 31.2 364.7 31.2L364.7 31.2Q365.4 31.2 365.9 30.9Q366.4 30.6 366.9 30.2L366.9 30.2L368.1 31.7Q367.5 32.4 366.6 32.8Q365.6 33.2 364.4 33.2ZM364.3 25.7L364.3 25.7Q363.6 25.7 363.1 26.2Q362.7 26.7 362.7 27.6L362.7 27.6L362.7 27.7L365.8 27.7L365.8 27.5Q365.8 26.7 365.4 26.2Q365.1 25.7 364.3 25.7ZM372.7 33L370.2 33L370.2 24.1L372.7 24.1L372.7 25.6L372.8 25.6Q373.1 24.9 373.7 24.4Q374.2 23.9 375.3 23.9L375.3 23.9Q376.7 23.9 377.4 24.8Q378.1 25.7 378.1 27.4L378.1 27.4L378.1 33L375.6 33L375.6 27.6Q375.6 26.7 375.3 26.3Q375.0 25.9 374.3 25.9L374.3 25.9Q374.0 25.9 373.7 26.0Q373.4 26.1 373.2 26.2Q373.0 26.4 372.9 26.7Q372.7 26.9 372.7 27.2L372.7 27.2L372.7 33ZM383.4 33.2L383.4 33.2Q382.1 33.2 381.2 32.8Q380.3 32.4 379.6 31.6L379.6 31.6L381.1 30.1Q381.6 30.6 382.1 30.9Q382.7 31.2 383.4 31.2L383.4 31.2Q384.2 31.2 384.5 31.0Q384.8 30.8 384.8 30.4L384.8 30.4Q384.8 29.8 383.9 29.7L383.9 29.7L382.9 29.5Q379.9 29.2 379.9 26.8L379.9 26.8Q379.9 26.1 380.1 25.6Q380.4 25.1 380.8 24.7Q381.3 24.3 381.9 24.1Q382.6 23.9 383.4 23.9L383.4 23.9Q384.1 23.9 384.6 24.0Q385.1 24.1 385.5 24.2Q386.0 24.4 386.3 24.7Q386.7 24.9 387.0 25.3L387.0 25.3L385.6 26.7Q385.1 26.3 384.6 26.1Q384.1 25.8 383.5 25.8L383.5 25.8Q382.8 25.8 382.6 26.0Q382.3 26.2 382.3 26.6L382.3 26.6Q382.3 26.9 382.5 27.1Q382.7 27.3 383.2 27.4L383.2 27.4L384.2 27.5Q387.2 27.9 387.2 30.2L387.2 30.2Q387.2 30.9 386.9 31.4Q386.6 32.0 386.1 32.4Q385.6 32.8 384.9 33.0Q384.2 33.2 383.4 33.2Z "/></g><clipPath id="satori_cp-id-1"><path x="20" y="50" width="560" height="44" d="M26,50 h548 a6,6 0 0 1 6,6 v32 a6,6 0 0 1 -6,6 h-548 a6,6 0 0 1 -6,-6 v-32 a6,6 0 0 1 6,-6"/></clipPath><mask id="satori_om-id-1"><rect x="20" y="50" width="560" height="44" fill="#fff"/></mask><mask id="satori_om-id-1-0"><rect x="20" y="50" width="17" height="44" fill="#fff" mask="url(#satori_om-id-1)"/></mask><rect x="20" y="50" width="17" height="44" fill="#5E4B8B" clip-path="url(#satori_cp-id-1)" mask="url(#satori_om-id-1)"/><mask id="satori_om-id-1-1"><rect x="37" y="50" width="487" height="44" fill="#fff" mask="url(#satori_om-id-1)"/></mask><rect x="37" y="50" width="487" height="44" fill="#0E7469" clip-path="url(#satori_cp-id-1)" mask="url(#satori_om-id-1)"/><mask id="satori_om-id-1-2"><rect x="524" y="50" width="11" height="44" fill="#fff" mask="url(#satori_om-id-1)"/></mask><rect x="524" y="50" width="11" height="44" fill="#986816" clip-path="url(#satori_cp-id-1)" mask="url(#satori_om-id-1)"/><defs><clipPath id="satori_bc-id-1-3" clip-path="url(#satori_cp-id-1)"><rect x="535" y="50" width="45" height="44"/></clipPath></defs><mask id="satori_om-id-1-3"><rect x="537" y="52" width="41" height="40" fill="#fff" mask="url(#satori_om-id-1)"/><path width="45" height="44" fill="none" stroke="#000" stroke-width="4" d="M535,50 A0,0 0 0 1 535,50 h45 a0,0 0 0 1 0,0 v44 a0,0 0 0 1 0,0 h-45 a0,0 0 0 1 0,0 v-44 A0,0 0 0 1 535,50"/></mask><rect x="535" y="50" width="45" height="44" fill="#F7F5EF" clip-path="url(#satori_cp-id-1)" mask="url(#satori_om-id-1)"/><path width="45" height="44" clip-path="url(#satori_bc-id-1-3)" fill="none" stroke="#817B6D" stroke-width="4" stroke-dasharray="4 2" d="M535,50 A0,0 0 0 1 535,50 h45 a0,0 0 0 1 0,0 v44 a0,0 0 0 1 0,0 h-45 a0,0 0 0 1 0,0 v-44 A0,0 0 0 1 535,50"/><mask id="satori_om-id-2"><rect x="20" y="106" width="560" height="48" fill="#fff"/></mask><mask id="satori_om-id-2-0"><rect x="20" y="106" width="270" height="20" fill="#fff"/></mask><mask id="satori_om-id-2-0-0"><rect x="20" y="107" width="18" height="18" fill="#fff"/></mask><rect x="20" y="107" width="18" height="18" fill="#5E4B8B"/><mask id="satori_om-id-2-0-1"><rect x="46" y="106" width="194" height="20" fill="#fff"/></mask><g  ><path fill="#1B1A17" d="M50.3 121.2L50.3 121.2Q49.1 121.2 48.2 120.7Q47.3 120.2 46.6 119.3L46.6 119.3L47.6 118.6Q48.1 119.3 48.8 119.7Q49.5 120.1 50.4 120.1L50.4 120.1Q51.5 120.1 52.1 119.5Q52.7 119.0 52.7 118.1L52.7 118.1Q52.7 117.3 52.2 116.9Q51.8 116.5 50.8 116.3L50.8 116.3L49.9 116.1Q48.5 115.8 47.7 115.1Q46.9 114.4 46.9 113.2L46.9 113.2Q46.9 112.5 47.2 112.0Q47.5 111.4 47.9 111.1Q48.4 110.7 49.0 110.5Q49.6 110.3 50.4 110.3L50.4 110.3Q51.6 110.3 52.4 110.8Q53.3 111.2 53.9 112.1L53.9 112.1L52.9 112.8Q52.5 112.2 51.9 111.8Q51.3 111.5 50.4 111.5L50.4 111.5Q49.3 111.5 48.8 111.9Q48.2 112.3 48.2 113.2L48.2 113.2Q48.2 113.9 48.7 114.3Q49.2 114.7 50.2 114.9L50.2 114.9L51.0 115.1Q52.6 115.5 53.2 116.2Q53.9 116.9 53.9 118.0L53.9 118.0Q53.9 118.8 53.7 119.3Q53.4 119.9 53.0 120.3Q52.5 120.7 51.8 121.0Q51.2 121.2 50.3 121.2ZM58.9 118.5L60.8 113.3L61.9 113.3L58.5 122.8Q58.3 123.1 58.2 123.4Q58.1 123.6 57.9 123.7Q57.7 123.9 57.4 123.9Q57.1 124 56.7 124L56.7 124L56.1 124L56.1 123.0L57.3 123.0L57.9 121.3L55.0 113.3L56.2 113.3L58.0 118.5L58.4 119.8L58.5 119.8L58.9 118.5ZM65.7 121.2L65.7 121.2Q64.7 121.2 63.9 120.8Q63.2 120.4 62.7 119.7L62.7 119.7L63.5 119.0Q64.0 119.5 64.5 119.9Q65.1 120.2 65.8 120.2L65.8 120.2Q66.6 120.2 67.0 119.8Q67.5 119.5 67.5 118.9L67.5 118.9Q67.5 118.5 67.2 118.1Q66.9 117.8 66.1 117.7L66.1 117.7L65.5 117.6Q64.9 117.5 64.5 117.4Q64.0 117.2 63.7 116.9Q63.4 116.7 63.2 116.3Q63.0 115.9 63.0 115.4L63.0 115.4Q63.0 114.8 63.2 114.4Q63.4 113.9 63.8 113.7Q64.2 113.4 64.7 113.2Q65.2 113.1 65.8 113.1L65.8 113.1Q66.7 113.1 67.3 113.4Q68.0 113.7 68.5 114.3L68.5 114.3L67.7 115.0Q67.4 114.7 66.9 114.4Q66.4 114.1 65.7 114.1L65.7 114.1Q64.9 114.1 64.5 114.4Q64.2 114.7 64.2 115.3L64.2 115.3Q64.2 115.9 64.5 116.1Q64.9 116.4 65.6 116.5L65.6 116.5L66.2 116.6Q67.5 116.8 68.1 117.3Q68.6 117.9 68.6 118.8L68.6 118.8Q68.6 119.9 67.8 120.5Q67.1 121.2 65.7 121.2ZM73.8 121L72.3 121Q71.7 121 71.4 120.6Q71.0 120.3 71.0 119.7L71.0 119.7L71.0 114.3L69.8 114.3L69.8 113.3L70.5 113.3Q70.9 113.3 71.0 113.1Q71.2 112.9 71.2 112.6L71.2 112.6L71.2 111.1L72.3 111.1L72.3 113.3L73.9 113.3L73.9 114.3L72.3 114.3L72.3 120.0L73.8 120.0L73.8 121ZM78.7 121.2L78.7 121.2Q77.9 121.2 77.3 120.9Q76.7 120.6 76.2 120.1Q75.7 119.5 75.5 118.8Q75.3 118.1 75.3 117.1L75.3 117.1Q75.3 116.2 75.5 115.5Q75.7 114.7 76.2 114.2Q76.7 113.7 77.3 113.4Q77.9 113.1 78.7 113.1L78.7 113.1Q79.5 113.1 80.1 113.4Q80.7 113.7 81.2 114.2Q81.6 114.7 81.8 115.3Q82.1 116.0 82.1 116.9L82.1 116.9L82.1 117.4L76.5 117.4L76.5 117.8Q76.5 118.3 76.7 118.7Q76.8 119.1 77.1 119.5Q77.4 119.8 77.8 120.0Q78.3 120.1 78.8 120.1L78.8 120.1Q79.5 120.1 80.1 119.8Q80.6 119.4 80.9 118.8L80.9 118.8L81.8 119.4Q81.4 120.2 80.6 120.7Q79.8 121.2 78.7 121.2ZM78.7 114.1L78.7 114.1Q78.2 114.1 77.8 114.3Q77.4 114.4 77.1 114.7Q76.8 115.1 76.7 115.5Q76.5 115.9 76.5 116.4L76.5 116.4L76.5 116.5L80.8 116.5L80.8 116.4Q80.8 115.3 80.2 114.7Q79.7 114.1 78.7 114.1ZM85.3 121L84.1 121L84.1 113.3L85.3 113.3L85.3 114.5L85.3 114.5Q85.5 114.2 85.6 114.0Q85.8 113.7 86.0 113.5Q86.3 113.3 86.6 113.2Q87.0 113.1 87.4 113.1L87.4 113.1Q88.2 113.1 88.8 113.4Q89.5 113.8 89.8 114.7L89.8 114.7L89.8 114.7Q90.0 114.0 90.6 113.6Q91.2 113.1 92.2 113.1L92.2 113.1Q93.3 113.1 94.0 113.9Q94.7 114.6 94.7 116.0L94.7 116.0L94.7 121L93.5 121L93.5 116.2Q93.5 115.2 93.1 114.7Q92.7 114.2 91.8 114.2L91.8 114.2Q91.4 114.2 91.1 114.3Q90.8 114.3 90.5 114.5Q90.3 114.7 90.1 115.0Q90.0 115.3 90.0 115.6L90.0 115.6L90.0 121L88.8 121L88.8 116.2Q88.8 115.2 88.4 114.7Q88.0 114.2 87.1 114.2L87.1 114.2Q86.7 114.2 86.4 114.3Q86.1 114.3 85.8 114.5Q85.6 114.7 85.4 115.0Q85.3 115.3 85.3 115.6L85.3 115.6L85.3 121Z M103.9 121L102.4 121Q101.8 121 101.4 120.6Q101.1 120.3 101.1 119.7L101.1 119.7L101.1 114.3L99.8 114.3L99.8 113.3L100.6 113.3Q101.0 113.3 101.1 113.1Q101.2 112.9 101.2 112.6L101.2 112.6L101.2 111.1L102.3 111.1L102.3 113.3L104.0 113.3L104.0 114.3L102.3 114.3L102.3 120.0L103.9 120.0L103.9 121ZM108.8 121.2L108.8 121.2Q108.0 121.2 107.4 120.9Q106.7 120.6 106.3 120.1Q105.8 119.5 105.6 118.8Q105.3 118.1 105.3 117.1L105.3 117.1Q105.3 116.2 105.6 115.5Q105.8 114.7 106.3 114.2Q106.7 113.7 107.4 113.4Q108.0 113.1 108.8 113.1L108.8 113.1Q109.6 113.1 110.2 113.4Q110.8 113.7 111.2 114.2Q111.7 114.7 111.9 115.3Q112.1 116.0 112.1 116.9L112.1 116.9L112.1 117.4L106.6 117.4L106.6 117.8Q106.6 118.3 106.7 118.7Q106.9 119.1 107.2 119.5Q107.5 119.8 107.9 120.0Q108.3 120.1 108.9 120.1L108.9 120.1Q109.6 120.1 110.2 119.8Q110.7 119.4 111.0 118.8L111.0 118.8L111.9 119.4Q111.5 120.2 110.7 120.7Q109.9 121.2 108.8 121.2ZM108.8 114.1L108.8 114.1Q108.3 114.1 107.9 114.3Q107.5 114.4 107.2 114.7Q106.9 115.1 106.7 115.5Q106.6 115.9 106.6 116.4L106.6 116.4L106.6 116.5L110.9 116.5L110.9 116.4Q110.9 115.3 110.3 114.7Q109.7 114.1 108.8 114.1ZM114.3 121L113.0 121L115.9 117.1L113.1 113.3L114.5 113.3L116.5 116.1L116.5 116.1L118.6 113.3L119.9 113.3L117.2 117.0L120.0 121L118.6 121L116.5 118.0L116.5 118.0L114.3 121ZM124.8 121L123.3 121Q122.6 121 122.3 120.6Q122.0 120.3 122.0 119.7L122.0 119.7L122.0 114.3L120.7 114.3L120.7 113.3L121.4 113.3Q121.8 113.3 122.0 113.1Q122.1 112.9 122.1 112.6L122.1 112.6L122.1 111.1L123.2 111.1L123.2 113.3L124.9 113.3L124.9 114.3L123.2 114.3L123.2 120.0L124.8 120.0L124.8 121Z M136.7 121L136.0 121Q135.3 121 135.0 120.6Q134.7 120.3 134.6 119.7L134.6 119.7L134.6 119.7Q134.3 120.5 133.7 120.8Q133.1 121.2 132.3 121.2L132.3 121.2Q131.1 121.2 130.4 120.5Q129.7 119.9 129.7 118.8L129.7 118.8Q129.7 117.7 130.5 117.2Q131.3 116.6 133.0 116.6L133.0 116.6L134.6 116.6L134.6 115.8Q134.6 115.0 134.1 114.5Q133.7 114.1 132.7 114.1L132.7 114.1Q132.0 114.1 131.6 114.4Q131.1 114.7 130.8 115.3L130.8 115.3L130.1 114.6Q130.4 114.0 131.1 113.5Q131.8 113.1 132.8 113.1L132.8 113.1Q134.2 113.1 135.0 113.8Q135.8 114.5 135.8 115.7L135.8 115.7L135.8 120.0L136.7 120.0L136.7 121ZM132.5 120.2L132.5 120.2Q133.0 120.2 133.4 120.1Q133.7 120.0 134.0 119.8Q134.3 119.6 134.4 119.3Q134.6 119.0 134.6 118.8L134.6 118.8L134.6 117.5L133.0 117.5Q131.9 117.5 131.5 117.8Q131.0 118.1 131.0 118.6L131.0 118.6L131.0 119.0Q131.0 119.5 131.4 119.8Q131.8 120.2 132.5 120.2ZM139.6 121L138.4 121L138.4 113.3L139.6 113.3L139.6 114.5L139.6 114.5Q139.9 113.9 140.4 113.5Q140.9 113.1 141.8 113.1L141.8 113.1Q143.0 113.1 143.7 113.9Q144.4 114.6 144.4 116.0L144.4 116.0L144.4 121L143.2 121L143.2 116.2Q143.2 114.2 141.5 114.2L141.5 114.2Q141.1 114.2 140.8 114.3Q140.4 114.3 140.2 114.5Q139.9 114.7 139.7 115.0Q139.6 115.3 139.6 115.6L139.6 115.6L139.6 121ZM151.8 121L151.8 119.7L151.8 119.7Q151.1 121.2 149.5 121.2L149.5 121.2Q148.8 121.2 148.2 120.9Q147.6 120.6 147.2 120.1Q146.8 119.6 146.6 118.8Q146.4 118.1 146.4 117.1L146.4 117.1Q146.4 116.2 146.6 115.5Q146.8 114.7 147.2 114.2Q147.6 113.7 148.2 113.4Q148.8 113.1 149.5 113.1L149.5 113.1Q150.3 113.1 150.9 113.4Q151.5 113.8 151.8 114.5L151.8 114.5L151.8 114.5L151.8 109.9L153.0 109.9L153.0 121L151.8 121ZM149.8 120.1L149.8 120.1Q150.2 120.1 150.6 120.0Q151.0 119.9 151.3 119.7Q151.5 119.5 151.7 119.2Q151.8 118.9 151.8 118.5L151.8 118.5L151.8 115.6Q151.8 115.3 151.7 115.1Q151.5 114.8 151.3 114.6Q151.0 114.4 150.6 114.3Q150.2 114.2 149.8 114.2L149.8 114.2Q148.8 114.2 148.2 114.8Q147.7 115.4 147.7 116.5L147.7 116.5L147.7 117.8Q147.7 118.8 148.2 119.5Q148.8 120.1 149.8 120.1Z M162.3 121L160.8 121Q160.2 121 159.9 120.6Q159.6 120.3 159.6 119.7L159.6 119.7L159.6 114.3L158.3 114.3L158.3 113.3L159.0 113.3Q159.4 113.3 159.5 113.1Q159.7 112.9 159.7 112.6L159.7 112.6L159.7 111.1L160.8 111.1L160.8 113.3L162.5 113.3L162.5 114.3L160.8 114.3L160.8 120.0L162.3 120.0L162.3 121ZM167.3 121.2L167.3 121.2Q166.5 121.2 165.8 120.9Q165.2 120.6 164.7 120.1Q164.3 119.5 164.0 118.8Q163.8 118.1 163.8 117.1L163.8 117.1Q163.8 116.2 164.0 115.5Q164.3 114.7 164.7 114.2Q165.2 113.7 165.8 113.4Q166.5 113.1 167.3 113.1L167.3 113.1Q168.0 113.1 168.7 113.4Q169.3 113.7 169.8 114.2Q170.2 114.7 170.5 115.5Q170.8 116.2 170.8 117.1L170.8 117.1Q170.8 118.1 170.5 118.8Q170.2 119.5 169.8 120.1Q169.3 120.6 168.7 120.9Q168.0 121.2 167.3 121.2ZM167.3 120.1L167.3 120.1Q168.2 120.1 168.8 119.5Q169.5 118.9 169.5 117.7L169.5 117.7L169.5 116.6Q169.5 115.3 168.8 114.7Q168.2 114.1 167.3 114.1L167.3 114.1Q166.3 114.1 165.7 114.7Q165.1 115.3 165.1 116.6L165.1 116.6L165.1 117.7Q165.1 118.9 165.7 119.5Q166.3 120.1 167.3 120.1ZM175.7 121.2L175.7 121.2Q174.9 121.2 174.2 120.9Q173.6 120.6 173.1 120.1Q172.7 119.5 172.4 118.8Q172.2 118.1 172.2 117.1L172.2 117.1Q172.2 116.2 172.4 115.5Q172.7 114.7 173.1 114.2Q173.6 113.7 174.2 113.4Q174.9 113.1 175.7 113.1L175.7 113.1Q176.4 113.1 177.1 113.4Q177.7 113.7 178.2 114.2Q178.6 114.7 178.9 115.5Q179.2 116.2 179.2 117.1L179.2 117.1Q179.2 118.1 178.9 118.8Q178.6 119.5 178.2 120.1Q177.7 120.6 177.1 120.9Q176.4 121.2 175.7 121.2ZM175.7 120.1L175.7 120.1Q176.6 120.1 177.3 119.5Q177.9 118.9 177.9 117.7L177.9 117.7L177.9 116.6Q177.9 115.3 177.3 114.7Q176.6 114.1 175.7 114.1L175.7 114.1Q174.7 114.1 174.1 114.7Q173.5 115.3 173.5 116.6L173.5 116.6L173.5 117.7Q173.5 118.9 174.1 119.5Q174.7 120.1 175.7 120.1ZM183.5 121L182.4 121Q181.8 121 181.5 120.6Q181.1 120.3 181.1 119.8L181.1 119.8L181.1 109.9L182.3 109.9L182.3 120.0L183.5 120.0L183.5 121ZM187.5 121.2L187.5 121.2Q186.5 121.2 185.7 120.8Q185.0 120.4 184.5 119.7L184.5 119.7L185.3 119.0Q185.8 119.5 186.3 119.9Q186.9 120.2 187.6 120.2L187.6 120.2Q188.4 120.2 188.8 119.8Q189.3 119.5 189.3 118.9L189.3 118.9Q189.3 118.5 189.0 118.1Q188.7 117.8 187.9 117.7L187.9 117.7L187.3 117.6Q186.7 117.5 186.3 117.4Q185.8 117.2 185.5 116.9Q185.2 116.7 185.0 116.3Q184.8 115.9 184.8 115.4L184.8 115.4Q184.8 114.8 185.0 114.4Q185.2 113.9 185.6 113.7Q186.0 113.4 186.5 113.2Q187.0 113.1 187.6 113.1L187.6 113.1Q188.5 113.1 189.1 113.4Q189.8 113.7 190.3 114.3L190.3 114.3L189.5 115.0Q189.2 114.7 188.7 114.4Q188.2 114.1 187.5 114.1L187.5 114.1Q186.7 114.1 186.3 114.4Q186.0 114.7 186.0 115.3L186.0 115.3Q186.0 115.9 186.3 116.1Q186.7 116.4 187.4 116.5L187.4 116.5L188.0 116.6Q189.3 116.8 189.9 117.3Q190.4 117.9 190.4 118.8L190.4 118.8Q190.4 119.9 189.6 120.5Q188.9 121.2 187.5 121.2ZM193.4 121.2L193.4 121.2Q193.0 121.2 192.7 120.9Q192.5 120.7 192.5 120.3L192.5 120.3L192.5 120.1Q192.5 119.7 192.7 119.5Q193.0 119.2 193.4 119.2L193.4 119.2Q193.9 119.2 194.1 119.5Q194.4 119.7 194.4 120.1L194.4 120.1L194.4 120.3Q194.4 120.7 194.1 120.9Q193.9 121.2 193.4 121.2ZM193.4 115.0L193.4 115.0Q193.0 115.0 192.7 114.8Q192.5 114.5 192.5 114.1L192.5 114.1L192.5 114.0Q192.5 113.6 192.7 113.3Q193.0 113.1 193.4 113.1L193.4 113.1Q193.9 113.1 194.1 113.3Q194.4 113.6 194.4 114.0L194.4 114.0L194.4 114.1Q194.4 114.5 194.1 114.8Q193.9 115.0 193.4 115.0Z M201.9 115.0L203.1 115.0Q204.1 115.0 204.7 114.5Q205.2 114.0 205.2 113.2L205.2 113.2L205.2 113.1Q205.2 112.3 204.7 111.9Q204.2 111.5 203.3 111.5L203.3 111.5Q202.5 111.5 202.0 111.8Q201.5 112.2 201.2 112.8L201.2 112.8L200.2 112.1Q200.4 111.7 200.7 111.4Q201.0 111.1 201.4 110.9Q201.7 110.7 202.2 110.5Q202.7 110.3 203.4 110.3L203.4 110.3Q204.0 110.3 204.6 110.5Q205.2 110.7 205.6 111.0Q206.0 111.4 206.3 111.9Q206.5 112.4 206.5 113.0L206.5 113.0Q206.5 113.5 206.4 113.9Q206.2 114.3 206.0 114.6Q205.7 114.9 205.3 115.1Q205.0 115.3 204.5 115.4L204.5 115.4L204.5 115.5Q205.0 115.6 205.4 115.8Q205.8 116.0 206.1 116.3Q206.4 116.6 206.6 117.1Q206.7 117.5 206.7 118.1L206.7 118.1Q206.7 118.8 206.5 119.4Q206.2 119.9 205.8 120.3Q205.3 120.7 204.6 121.0Q204.0 121.2 203.2 121.2L203.2 121.2Q202.5 121.2 202.0 121.0Q201.5 120.9 201.1 120.6Q200.7 120.4 200.3 120.1Q200.0 119.7 199.8 119.4L199.8 119.4L200.7 118.7Q200.9 119.0 201.2 119.2Q201.4 119.5 201.7 119.7Q202.0 119.9 202.3 120.0Q202.7 120.1 203.2 120.1L203.2 120.1Q204.3 120.1 204.8 119.6Q205.4 119.0 205.4 118.1L205.4 118.1L205.4 118Q205.4 117.1 204.8 116.6Q204.3 116.1 203.2 116.1L203.2 116.1L201.9 116.1L201.9 115.0ZM210.2 119.2L210.2 119.2Q210.7 119.2 210.9 119.5Q211.1 119.7 211.1 120.1L211.1 120.1L211.1 120.3Q211.1 121.0 210.8 121.7Q210.4 122.4 209.8 123.0L209.8 123.0L208.8 123.0Q209.2 122.5 209.5 122.1Q209.8 121.7 209.9 121.1L209.9 121.1Q209.6 121.1 209.4 120.8Q209.3 120.6 209.3 120.3L209.3 120.3L209.3 120.1Q209.3 119.7 209.5 119.5Q209.7 119.2 210.2 119.2ZM216.7 121.2L216.7 121.2Q214.9 121.2 214.0 119.8Q213.1 118.3 213.1 115.8L213.1 115.8Q213.1 113.2 214.0 111.8Q214.9 110.3 216.7 110.3L216.7 110.3Q218.6 110.3 219.5 111.8Q220.3 113.2 220.3 115.8L220.3 115.8Q220.3 118.3 219.5 119.8Q218.6 121.2 216.7 121.2ZM216.7 120.1L216.7 120.1Q217.4 120.1 217.8 119.8Q218.2 119.6 218.5 119.1Q218.8 118.6 218.9 118.0Q219.0 117.4 219.0 116.6L219.0 116.6L219.0 114.9Q219.0 114.1 218.9 113.5Q218.8 112.9 218.5 112.4Q218.2 112.0 217.8 111.7Q217.4 111.4 216.7 111.4L216.7 111.4Q216.1 111.4 215.7 111.7Q215.3 112.0 215.0 112.4Q214.7 112.9 214.6 113.5Q214.5 114.1 214.5 114.9L214.5 114.9L214.5 116.6Q214.5 117.4 214.6 118.0Q214.7 118.6 215.0 119.1Q215.3 119.6 215.7 119.8Q216.1 120.1 216.7 120.1ZM225.7 121.2L225.7 121.2Q223.9 121.2 223.0 119.8Q222.1 118.3 222.1 115.8L222.1 115.8Q222.1 113.2 223.0 111.8Q223.9 110.3 225.7 110.3L225.7 110.3Q227.6 110.3 228.5 111.8Q229.3 113.2 229.3 115.8L229.3 115.8Q229.3 118.3 228.5 119.8Q227.6 121.2 225.7 121.2ZM225.7 120.1L225.7 120.1Q226.4 120.1 226.8 119.8Q227.2 119.6 227.5 119.1Q227.8 118.6 227.9 118.0Q228.0 117.4 228.0 116.6L228.0 116.6L228.0 114.9Q228.0 114.1 227.9 113.5Q227.8 112.9 227.5 112.4Q227.2 112.0 226.8 111.7Q226.4 111.4 225.7 111.4L225.7 111.4Q225.1 111.4 224.7 111.7Q224.3 112.0 224.0 112.4Q223.7 112.9 223.6 113.5Q223.5 114.1 223.5 114.9L223.5 114.9L223.5 116.6Q223.5 117.4 223.6 118.0Q223.7 118.6 224.0 119.1Q224.3 119.6 224.7 119.8Q225.1 120.1 225.7 120.1ZM234.7 121.2L234.7 121.2Q232.9 121.2 232.0 119.8Q231.1 118.3 231.1 115.8L231.1 115.8Q231.1 113.2 232.0 111.8Q232.9 110.3 234.7 110.3L234.7 110.3Q236.6 110.3 237.5 111.8Q238.3 113.2 238.3 115.8L238.3 115.8Q238.3 118.3 237.5 119.8Q236.6 121.2 234.7 121.2ZM234.7 120.1L234.7 120.1Q235.4 120.1 235.8 119.8Q236.2 119.6 236.5 119.1Q236.8 118.6 236.9 118.0Q237.0 117.4 237.0 116.6L237.0 116.6L237.0 114.9Q237.0 114.1 236.9 113.5Q236.8 112.9 236.5 112.4Q236.2 112.0 235.8 111.7Q235.4 111.4 234.7 111.4L234.7 111.4Q234.1 111.4 233.7 111.7Q233.3 112.0 233.0 112.4Q232.7 112.9 232.6 113.5Q232.5 114.1 232.5 114.9L232.5 114.9L232.5 116.6Q232.5 117.4 232.6 118.0Q232.7 118.6 233.0 119.1Q233.3 119.6 233.7 119.8Q234.1 120.1 234.7 120.1Z "/></g><mask id="satori_om-id-2-1"><rect x="310" y="106" width="270" height="20" fill="#fff"/></mask><mask id="satori_om-id-2-1-0"><rect x="310" y="107" width="18" height="18" fill="#fff"/></mask><rect x="310" y="107" width="18" height="18" fill="#0E7469"/><mask id="satori_om-id-2-1-1"><rect x="336" y="106" width="151" height="20" fill="#fff"/></mask><g  ><path fill="#1B1A17" d="M343.8 121L337.4 121L337.4 110.5L343.8 110.5L343.8 111.6L338.7 111.6L338.7 115.2L343.5 115.2L343.5 116.3L338.7 116.3L338.7 119.9L343.8 119.9L343.8 121ZM352.3 121L351.6 121Q351.0 121 350.7 120.6Q350.4 120.3 350.3 119.7L350.3 119.7L350.2 119.7Q350.0 120.5 349.4 120.8Q348.8 121.2 348 121.2L348 121.2Q346.8 121.2 346.1 120.5Q345.4 119.9 345.4 118.8L345.4 118.8Q345.4 117.7 346.2 117.2Q347.0 116.6 348.7 116.6L348.7 116.6L350.2 116.6L350.2 115.8Q350.2 115.0 349.8 114.5Q349.3 114.1 348.4 114.1L348.4 114.1Q347.7 114.1 347.2 114.4Q346.8 114.7 346.4 115.3L346.4 115.3L345.7 114.6Q346.0 114.0 346.7 113.5Q347.4 113.1 348.5 113.1L348.5 113.1Q349.9 113.1 350.7 113.8Q351.4 114.5 351.4 115.7L351.4 115.7L351.4 120.0L352.3 120.0L352.3 121ZM348.2 120.2L348.2 120.2Q348.6 120.2 349.0 120.1Q349.4 120.0 349.7 119.8Q349.9 119.6 350.1 119.3Q350.2 119.0 350.2 118.8L350.2 118.8L350.2 117.5L348.6 117.5Q347.6 117.5 347.1 117.8Q346.7 118.1 346.7 118.6L346.7 118.6L346.7 119.0Q346.7 119.5 347.1 119.8Q347.5 120.2 348.2 120.2ZM355.2 121L354.0 121L354.0 113.3L355.2 113.3L355.2 114.7L355.3 114.7Q355.5 114.1 356.1 113.7Q356.6 113.3 357.5 113.3L357.5 113.3L358.0 113.3L358.0 114.5L357.3 114.5Q356.3 114.5 355.8 114.8Q355.2 115.2 355.2 115.8L355.2 115.8L355.2 121ZM361.9 121L360.8 121Q360.2 121 359.9 120.6Q359.5 120.3 359.5 119.8L359.5 119.8L359.5 109.9L360.7 109.9L360.7 120.0L361.9 120.0L361.9 121ZM364.2 111.4L364.2 111.4Q363.8 111.4 363.7 111.3Q363.5 111.1 363.5 110.8L363.5 110.8L363.5 110.6Q363.5 110.3 363.7 110.1Q363.8 109.9 364.2 109.9L364.2 109.9Q364.6 109.9 364.8 110.1Q364.9 110.3 364.9 110.6L364.9 110.6L364.9 110.8Q364.9 111.1 364.8 111.3Q364.6 111.4 364.2 111.4ZM363.6 121L363.6 113.3L364.8 113.3L364.8 121L363.6 121ZM370.3 121.2L370.3 121.2Q369.5 121.2 368.8 120.9Q368.2 120.6 367.7 120.1Q367.3 119.5 367.0 118.8Q366.8 118.1 366.8 117.1L366.8 117.1Q366.8 116.2 367.0 115.5Q367.3 114.7 367.7 114.2Q368.2 113.7 368.8 113.4Q369.5 113.1 370.3 113.1L370.3 113.1Q371.1 113.1 371.7 113.4Q372.3 113.7 372.7 114.2Q373.2 114.7 373.4 115.3Q373.6 116.0 373.6 116.9L373.6 116.9L373.6 117.4L368.1 117.4L368.1 117.8Q368.1 118.3 368.2 118.7Q368.4 119.1 368.7 119.5Q369.0 119.8 369.4 120.0Q369.8 120.1 370.3 120.1L370.3 120.1Q371.1 120.1 371.6 119.8Q372.2 119.4 372.5 118.8L372.5 118.8L373.3 119.4Q373.0 120.2 372.2 120.7Q371.4 121.2 370.3 121.2ZM370.3 114.1L370.3 114.1Q369.8 114.1 369.4 114.3Q369.0 114.4 368.7 114.7Q368.4 115.1 368.2 115.5Q368.1 115.9 368.1 116.4L368.1 116.4L368.1 116.5L372.3 116.5L372.3 116.4Q372.3 115.3 371.8 114.7Q371.2 114.1 370.3 114.1ZM376.8 121L375.6 121L375.6 113.3L376.8 113.3L376.8 114.7L376.9 114.7Q377.1 114.1 377.6 113.7Q378.2 113.3 379.1 113.3L379.1 113.3L379.6 113.3L379.6 114.5L378.9 114.5Q377.9 114.5 377.3 114.8Q376.8 115.2 376.8 115.8L376.8 115.8L376.8 121Z M384.6 121L384.6 109.9L385.8 109.9L385.8 114.5L385.9 114.5Q386.2 113.9 386.7 113.5Q387.2 113.1 388.1 113.1L388.1 113.1Q389.3 113.1 390.0 113.9Q390.7 114.6 390.7 116.0L390.7 116.0L390.7 121L389.5 121L389.5 116.2Q389.5 114.2 387.7 114.2L387.7 114.2Q387.4 114.2 387.0 114.3Q386.7 114.3 386.4 114.5Q386.2 114.7 386.0 115.0Q385.8 115.3 385.8 115.6L385.8 115.6L385.8 121L384.6 121ZM393.8 111.4L393.8 111.4Q393.4 111.4 393.2 111.3Q393.0 111.1 393.0 110.8L393.0 110.8L393.0 110.6Q393.0 110.3 393.2 110.1Q393.4 109.9 393.8 109.9L393.8 109.9Q394.2 109.9 394.3 110.1Q394.5 110.3 394.5 110.6L394.5 110.6L394.5 110.8Q394.5 111.1 394.3 111.3Q394.2 111.4 393.8 111.4ZM393.2 121L393.2 113.3L394.4 113.3L394.4 121L393.2 121ZM399.2 121.2L399.2 121.2Q398.2 121.2 397.4 120.8Q396.7 120.4 396.2 119.7L396.2 119.7L397.0 119.0Q397.5 119.5 398.0 119.9Q398.6 120.2 399.3 120.2L399.3 120.2Q400.1 120.2 400.5 119.8Q400.9 119.5 400.9 118.9L400.9 118.9Q400.9 118.5 400.7 118.1Q400.4 117.8 399.6 117.7L399.6 117.7L399.0 117.6Q398.4 117.5 398.0 117.4Q397.5 117.2 397.2 116.9Q396.9 116.7 396.7 116.3Q396.5 115.9 396.5 115.4L396.5 115.4Q396.5 114.8 396.7 114.4Q396.9 113.9 397.3 113.7Q397.6 113.4 398.2 113.2Q398.7 113.1 399.3 113.1L399.3 113.1Q400.2 113.1 400.8 113.4Q401.5 113.7 402.0 114.3L402.0 114.3L401.2 115.0Q400.9 114.7 400.4 114.4Q399.9 114.1 399.2 114.1L399.2 114.1Q398.4 114.1 398.0 114.4Q397.6 114.7 397.6 115.3L397.6 115.3Q397.6 115.9 398.0 116.1Q398.4 116.4 399.1 116.5L399.1 116.5L399.7 116.6Q401.0 116.8 401.6 117.3Q402.1 117.9 402.1 118.8L402.1 118.8Q402.1 119.9 401.3 120.5Q400.6 121.2 399.2 121.2ZM407.3 121L405.8 121Q405.2 121 404.9 120.6Q404.5 120.3 404.5 119.7L404.5 119.7L404.5 114.3L403.3 114.3L403.3 113.3L404.0 113.3Q404.4 113.3 404.5 113.1Q404.7 112.9 404.7 112.6L404.7 112.6L404.7 111.1L405.8 111.1L405.8 113.3L407.4 113.3L407.4 114.3L405.8 114.3L405.8 120.0L407.3 120.0L407.3 121ZM412.2 121.2L412.2 121.2Q411.5 121.2 410.8 120.9Q410.2 120.6 409.7 120.1Q409.3 119.5 409.0 118.8Q408.7 118.1 408.7 117.1L408.7 117.1Q408.7 116.2 409.0 115.5Q409.3 114.7 409.7 114.2Q410.2 113.7 410.8 113.4Q411.5 113.1 412.2 113.1L412.2 113.1Q413.0 113.1 413.7 113.4Q414.3 113.7 414.8 114.2Q415.2 114.7 415.5 115.5Q415.7 116.2 415.7 117.1L415.7 117.1Q415.7 118.1 415.5 118.8Q415.2 119.5 414.8 120.1Q414.3 120.6 413.7 120.9Q413.0 121.2 412.2 121.2ZM412.2 120.1L412.2 120.1Q413.2 120.1 413.8 119.5Q414.4 118.9 414.4 117.7L414.4 117.7L414.4 116.6Q414.4 115.3 413.8 114.7Q413.2 114.1 412.2 114.1L412.2 114.1Q411.3 114.1 410.7 114.7Q410.0 115.3 410.0 116.6L410.0 116.6L410.0 117.7Q410.0 118.9 410.7 119.5Q411.3 120.1 412.2 120.1ZM418.9 121L417.7 121L417.7 113.3L418.9 113.3L418.9 114.7L419.0 114.7Q419.2 114.1 419.7 113.7Q420.3 113.3 421.2 113.3L421.2 113.3L421.7 113.3L421.7 114.5L421.0 114.5Q420.0 114.5 419.5 114.8Q418.9 115.2 418.9 115.8L418.9 115.8L418.9 121ZM426.3 118.5L428.1 113.3L429.3 113.3L425.9 122.8Q425.7 123.1 425.6 123.4Q425.5 123.6 425.3 123.7Q425.1 123.9 424.8 123.9Q424.5 124 424.1 124L424.1 124L423.4 124L423.4 123.0L424.7 123.0L425.2 121.3L422.4 113.3L423.6 113.3L425.4 118.5L425.8 119.8L425.8 119.8L426.3 118.5ZM431.8 121.2L431.8 121.2Q431.3 121.2 431.1 120.9Q430.9 120.7 430.9 120.3L430.9 120.3L430.9 120.1Q430.9 119.7 431.1 119.5Q431.3 119.2 431.8 119.2L431.8 119.2Q432.3 119.2 432.5 119.5Q432.7 119.7 432.7 120.1L432.7 120.1L432.7 120.3Q432.7 120.7 432.5 120.9Q432.3 121.2 431.8 121.2ZM431.8 115.0L431.8 115.0Q431.3 115.0 431.1 114.8Q430.9 114.5 430.9 114.1L430.9 114.1L430.9 114.0Q430.9 113.6 431.1 113.3Q431.3 113.1 431.8 113.1L431.8 113.1Q432.3 113.1 432.5 113.3Q432.7 113.6 432.7 114.0L432.7 114.0L432.7 114.1Q432.7 114.5 432.5 114.8Q432.3 115.0 431.8 115.0Z M442.0 121.2L442.0 121.2Q441.1 121.2 440.4 120.9Q439.8 120.7 439.3 120.3Q438.8 119.9 438.6 119.3Q438.4 118.8 438.4 118.2L438.4 118.2Q438.4 117.1 439.0 116.4Q439.5 115.8 440.5 115.6L440.5 115.6L440.5 115.4Q439.7 115.2 439.2 114.5Q438.7 113.9 438.7 113.0L438.7 113.0Q438.7 111.8 439.6 111.1Q440.4 110.3 442.0 110.3L442.0 110.3Q443.6 110.3 444.4 111.1Q445.3 111.8 445.3 113.0L445.3 113.0Q445.3 113.9 444.8 114.5Q444.3 115.2 443.5 115.4L443.5 115.4L443.5 115.6Q444.5 115.8 445.1 116.4Q445.6 117.1 445.6 118.2L445.6 118.2Q445.6 118.8 445.4 119.3Q445.2 119.9 444.7 120.3Q444.3 120.7 443.6 120.9Q442.9 121.2 442.0 121.2ZM442.0 120.1L442.0 120.1Q443.1 120.1 443.7 119.6Q444.3 119.1 444.3 118.2L444.3 118.2L444.3 117.9Q444.3 117.0 443.7 116.5Q443.1 116.0 442.0 116.0L442.0 116.0Q440.9 116.0 440.3 116.5Q439.7 117.0 439.7 117.9L439.7 117.9L439.7 118.2Q439.7 119.1 440.3 119.6Q440.9 120.1 442.0 120.1ZM442.0 115.0L442.0 115.0Q443.0 115.0 443.5 114.5Q444.0 114.1 444.0 113.3L444.0 113.3L444.0 113.1Q444.0 112.3 443.5 111.9Q443.0 111.4 442.0 111.4L442.0 111.4Q441.0 111.4 440.5 111.9Q440.0 112.3 440.0 113.1L440.0 113.1L440.0 113.3Q440.0 114.1 440.5 114.5Q441.0 115.0 442.0 115.0ZM450.5 121L449.1 121L453.1 111.6L448.7 111.6L448.7 113.6L447.5 113.6L447.5 110.5L454.4 110.5L454.4 111.6L450.5 121ZM457.5 119.2L457.5 119.2Q458.0 119.2 458.2 119.5Q458.5 119.7 458.5 120.1L458.5 120.1L458.5 120.3Q458.5 121.0 458.1 121.7Q457.7 122.4 457.1 123.0L457.1 123.0L456.1 123.0Q456.5 122.5 456.8 122.1Q457.1 121.7 457.2 121.1L457.2 121.1Q456.9 121.1 456.8 120.8Q456.6 120.6 456.6 120.3L456.6 120.3L456.6 120.1Q456.6 119.7 456.8 119.5Q457.1 119.2 457.5 119.2ZM464.1 121.2L464.1 121.2Q462.2 121.2 461.3 119.8Q460.5 118.3 460.5 115.8L460.5 115.8Q460.5 113.2 461.3 111.8Q462.2 110.3 464.1 110.3L464.1 110.3Q466.0 110.3 466.8 111.8Q467.7 113.2 467.7 115.8L467.7 115.8Q467.7 118.3 466.8 119.8Q466.0 121.2 464.1 121.2ZM464.1 120.1L464.1 120.1Q464.7 120.1 465.1 119.8Q465.6 119.6 465.8 119.1Q466.1 118.6 466.2 118.0Q466.4 117.4 466.4 116.6L466.4 116.6L466.4 114.9Q466.4 114.1 466.2 113.5Q466.1 112.9 465.8 112.4Q465.6 112.0 465.1 111.7Q464.7 111.4 464.1 111.4L464.1 111.4Q463.5 111.4 463.0 111.7Q462.6 112.0 462.3 112.4Q462.1 112.9 461.9 113.5Q461.8 114.1 461.8 114.9L461.8 114.9L461.8 116.6Q461.8 117.4 461.9 118.0Q462.1 118.6 462.3 119.1Q462.6 119.6 463.0 119.8Q463.5 120.1 464.1 120.1ZM473.1 121.2L473.1 121.2Q471.2 121.2 470.3 119.8Q469.5 118.3 469.5 115.8L469.5 115.8Q469.5 113.2 470.3 111.8Q471.2 110.3 473.1 110.3L473.1 110.3Q475.0 110.3 475.8 111.8Q476.7 113.2 476.7 115.8L476.7 115.8Q476.7 118.3 475.8 119.8Q475.0 121.2 473.1 121.2ZM473.1 120.1L473.1 120.1Q473.7 120.1 474.1 119.8Q474.6 119.6 474.8 119.1Q475.1 118.6 475.2 118.0Q475.4 117.4 475.4 116.6L475.4 116.6L475.4 114.9Q475.4 114.1 475.2 113.5Q475.1 112.9 474.8 112.4Q474.6 112.0 474.1 111.7Q473.7 111.4 473.1 111.4L473.1 111.4Q472.5 111.4 472.0 111.7Q471.6 112.0 471.3 112.4Q471.1 112.9 470.9 113.5Q470.8 114.1 470.8 114.9L470.8 114.9L470.8 116.6Q470.8 117.4 470.9 118.0Q471.1 118.6 471.3 119.1Q471.6 119.6 472.0 119.8Q472.5 120.1 473.1 120.1ZM482.1 121.2L482.1 121.2Q480.2 121.2 479.3 119.8Q478.5 118.3 478.5 115.8L478.5 115.8Q478.5 113.2 479.3 111.8Q480.2 110.3 482.1 110.3L482.1 110.3Q484.0 110.3 484.8 111.8Q485.7 113.2 485.7 115.8L485.7 115.8Q485.7 118.3 484.8 119.8Q484.0 121.2 482.1 121.2ZM482.1 120.1L482.1 120.1Q482.7 120.1 483.1 119.8Q483.6 119.6 483.8 119.1Q484.1 118.6 484.2 118.0Q484.4 117.4 484.4 116.6L484.4 116.6L484.4 114.9Q484.4 114.1 484.2 113.5Q484.1 112.9 483.8 112.4Q483.6 112.0 483.1 111.7Q482.7 111.4 482.1 111.4L482.1 111.4Q481.5 111.4 481.0 111.7Q480.6 112.0 480.3 112.4Q480.1 112.9 479.9 113.5Q479.8 114.1 479.8 114.9L479.8 114.9L479.8 116.6Q479.8 117.4 479.9 118.0Q480.1 118.6 480.3 119.1Q480.6 119.6 481.0 119.8Q481.5 120.1 482.1 120.1Z "/></g><mask id="satori_om-id-2-2"><rect x="20" y="134" width="270" height="20" fill="#fff"/></mask><mask id="satori_om-id-2-2-0"><rect x="20" y="135" width="18" height="18" fill="#fff"/></mask><rect x="20" y="135" width="18" height="18" fill="#986816"/><mask id="satori_om-id-2-2-1"><rect x="46" y="134" width="174" height="20" fill="#fff"/></mask><g  ><path fill="#1B1A17" d="M51.1 149L49.8 149L49.8 144.9L46.2 138.5L47.6 138.5L50.4 143.6L50.5 143.6L53.3 138.5L54.7 138.5L51.1 144.8L51.1 149ZM58.3 149.2L58.3 149.2Q57.6 149.2 56.9 148.9Q56.3 148.6 55.8 148.1Q55.4 147.5 55.1 146.8Q54.8 146.1 54.8 145.1L54.8 145.1Q54.8 144.2 55.1 143.5Q55.4 142.7 55.8 142.2Q56.3 141.7 56.9 141.4Q57.6 141.1 58.3 141.1L58.3 141.1Q59.1 141.1 59.8 141.4Q60.4 141.7 60.9 142.2Q61.3 142.7 61.6 143.5Q61.8 144.2 61.8 145.1L61.8 145.1Q61.8 146.1 61.6 146.8Q61.3 147.5 60.9 148.1Q60.4 148.6 59.8 148.9Q59.1 149.2 58.3 149.2ZM58.3 148.1L58.3 148.1Q59.3 148.1 59.9 147.5Q60.5 146.9 60.5 145.7L60.5 145.7L60.5 144.6Q60.5 143.3 59.9 142.7Q59.3 142.1 58.3 142.1L58.3 142.1Q57.4 142.1 56.8 142.7Q56.1 143.3 56.1 144.6L56.1 144.6L56.1 145.7Q56.1 146.9 56.8 147.5Q57.4 148.1 58.3 148.1ZM68.6 149L68.6 147.7L68.5 147.7Q68.4 148.0 68.2 148.3Q68.1 148.5 67.8 148.7Q67.6 148.9 67.2 149.1Q66.8 149.2 66.4 149.2L66.4 149.2Q65.2 149.2 64.4 148.4Q63.7 147.6 63.7 146.2L63.7 146.2L63.7 141.3L64.9 141.3L64.9 146.0Q64.9 148.1 66.7 148.1L66.7 148.1Q67.1 148.1 67.4 148.0Q67.8 147.9 68.0 147.7Q68.3 147.6 68.4 147.3Q68.6 147.0 68.6 146.6L68.6 146.6L68.6 141.3L69.8 141.3L69.8 149L68.6 149ZM73.5 149L72.3 149L72.3 141.3L73.5 141.3L73.5 142.7L73.6 142.7Q73.8 142.1 74.4 141.7Q74.9 141.3 75.8 141.3L75.8 141.3L76.3 141.3L76.3 142.5L75.6 142.5Q74.6 142.5 74.1 142.8Q73.5 143.2 73.5 143.8L73.5 143.8L73.5 149Z M82.6 149L81.4 149L81.4 141.3L82.6 141.3L82.6 142.5L82.6 142.5Q82.9 141.9 83.4 141.5Q84.0 141.1 84.8 141.1L84.8 141.1Q86.0 141.1 86.7 141.9Q87.4 142.6 87.4 144.0L87.4 144.0L87.4 149L86.2 149L86.2 144.2Q86.2 142.2 84.5 142.2L84.5 142.2Q84.1 142.2 83.8 142.3Q83.4 142.3 83.2 142.5Q82.9 142.7 82.7 143.0Q82.6 143.3 82.6 143.6L82.6 143.6L82.6 149ZM92.8 149.2L92.8 149.2Q92.0 149.2 91.4 148.9Q90.7 148.6 90.3 148.1Q89.8 147.5 89.6 146.8Q89.3 146.1 89.3 145.1L89.3 145.1Q89.3 144.2 89.6 143.5Q89.8 142.7 90.3 142.2Q90.7 141.7 91.4 141.4Q92.0 141.1 92.8 141.1L92.8 141.1Q93.6 141.1 94.2 141.4Q94.8 141.7 95.3 142.2Q95.7 142.7 95.9 143.3Q96.2 144.0 96.2 144.9L96.2 144.9L96.2 145.4L90.6 145.4L90.6 145.8Q90.6 146.3 90.8 146.7Q90.9 147.1 91.2 147.5Q91.5 147.8 91.9 147.9Q92.3 148.1 92.9 148.1L92.9 148.1Q93.6 148.1 94.2 147.8Q94.7 147.4 95.0 146.8L95.0 146.8L95.9 147.4Q95.5 148.2 94.7 148.7Q93.9 149.2 92.8 149.2ZM92.8 142.1L92.8 142.1Q92.3 142.1 91.9 142.3Q91.5 142.4 91.2 142.7Q90.9 143.1 90.8 143.5Q90.6 143.9 90.6 144.4L90.6 144.4L90.6 144.5L94.9 144.5L94.9 144.4Q94.9 143.3 94.3 142.7Q93.7 142.1 92.8 142.1ZM99.3 149L97.3 141.3L98.4 141.3L99.2 144.6L100.1 148.0L100.1 148.0L101.0 144.6L102.0 141.3L103.1 141.3L104.1 144.6L105.1 148.0L105.1 148.0L105.9 144.6L106.7 141.3L107.8 141.3L105.8 149L104.3 149L103.2 145.3L102.5 142.9L102.5 142.9L101.9 145.3L100.8 149L99.3 149Z M114.3 149L113.1 149L113.1 141.3L114.3 141.3L114.3 142.5L114.4 142.5Q114.5 142.2 114.7 142.0Q114.9 141.7 115.1 141.5Q115.4 141.3 115.7 141.2Q116.0 141.1 116.5 141.1L116.5 141.1Q117.2 141.1 117.9 141.4Q118.5 141.8 118.8 142.7L118.8 142.7L118.9 142.7Q119.1 142.0 119.7 141.6Q120.2 141.1 121.2 141.1L121.2 141.1Q122.4 141.1 123.1 141.9Q123.7 142.6 123.7 144.0L123.7 144.0L123.7 149L122.5 149L122.5 144.2Q122.5 143.2 122.1 142.7Q121.7 142.2 120.8 142.2L120.8 142.2Q120.5 142.2 120.2 142.3Q119.8 142.3 119.6 142.5Q119.3 142.7 119.2 143.0Q119.0 143.3 119.0 143.6L119.0 143.6L119.0 149L117.8 149L117.8 144.2Q117.8 143.2 117.4 142.7Q117.0 142.2 116.2 142.2L116.2 142.2Q115.8 142.2 115.5 142.3Q115.1 142.3 114.9 142.5Q114.6 142.7 114.5 143.0Q114.3 143.3 114.3 143.6L114.3 143.6L114.3 149ZM129.1 149.2L129.1 149.2Q128.3 149.2 127.7 148.9Q127.1 148.6 126.6 148.1Q126.1 147.5 125.9 146.8Q125.6 146.1 125.6 145.1L125.6 145.1Q125.6 144.2 125.9 143.5Q126.1 142.7 126.6 142.2Q127.1 141.7 127.7 141.4Q128.3 141.1 129.1 141.1L129.1 141.1Q129.9 141.1 130.5 141.4Q131.1 141.7 131.6 142.2Q132.0 142.7 132.2 143.3Q132.5 144.0 132.5 144.9L132.5 144.9L132.5 145.4L126.9 145.4L126.9 145.8Q126.9 146.3 127.1 146.7Q127.2 147.1 127.5 147.5Q127.8 147.8 128.2 147.9Q128.7 148.1 129.2 148.1L129.2 148.1Q129.9 148.1 130.5 147.8Q131.0 147.4 131.3 146.8L131.3 146.8L132.2 147.4Q131.8 148.2 131.0 148.7Q130.2 149.2 129.1 149.2ZM129.1 142.1L129.1 142.1Q128.6 142.1 128.2 142.3Q127.8 142.4 127.5 142.7Q127.2 143.1 127.1 143.5Q126.9 143.9 126.9 144.4L126.9 144.4L126.9 144.5L131.2 144.5L131.2 144.4Q131.2 143.3 130.6 142.7Q130.1 142.1 129.1 142.1ZM136.8 149.2L136.8 149.2Q135.7 149.2 135.0 148.8Q134.2 148.4 133.7 147.7L133.7 147.7L134.6 147.0Q135.0 147.5 135.6 147.9Q136.1 148.2 136.9 148.2L136.9 148.2Q137.6 148.2 138.1 147.8Q138.5 147.5 138.5 146.9L138.5 146.9Q138.5 146.4 138.2 146.1Q137.9 145.8 137.1 145.7L137.1 145.7L136.5 145.6Q136.0 145.5 135.5 145.4Q135.1 145.2 134.7 144.9Q134.4 144.7 134.2 144.3Q134.0 143.9 134.0 143.4L134.0 143.4Q134.0 142.8 134.2 142.4Q134.5 141.9 134.8 141.7Q135.2 141.4 135.7 141.2Q136.2 141.1 136.8 141.1L136.8 141.1Q137.7 141.1 138.4 141.4Q139.0 141.7 139.5 142.3L139.5 142.3L138.7 143.0Q138.4 142.7 138.0 142.4Q137.5 142.1 136.7 142.1L136.7 142.1Q136.0 142.1 135.6 142.4Q135.2 142.7 135.2 143.3L135.2 143.3Q135.2 143.9 135.6 144.1Q136.0 144.4 136.7 144.5L136.7 144.5L137.3 144.6Q138.6 144.8 139.1 145.3Q139.6 145.9 139.6 146.8L139.6 146.8Q139.6 147.9 138.9 148.5Q138.1 149.2 136.8 149.2ZM144.0 149.2L144.0 149.2Q142.9 149.2 142.2 148.8Q141.5 148.4 140.9 147.7L140.9 147.7L141.8 147.0Q142.2 147.5 142.8 147.9Q143.4 148.2 144.1 148.2L144.1 148.2Q144.9 148.2 145.3 147.8Q145.7 147.5 145.7 146.9L145.7 146.9Q145.7 146.4 145.4 146.1Q145.1 145.8 144.4 145.7L144.4 145.7L143.7 145.6Q143.2 145.5 142.8 145.4Q142.3 145.2 142.0 144.9Q141.6 144.7 141.4 144.3Q141.3 143.9 141.3 143.4L141.3 143.4Q141.3 142.8 141.5 142.4Q141.7 141.9 142.0 141.7Q142.4 141.4 142.9 141.2Q143.4 141.1 144.0 141.1L144.0 141.1Q145.0 141.1 145.6 141.4Q146.2 141.7 146.7 142.3L146.7 142.3L145.9 143.0Q145.7 142.7 145.2 142.4Q144.7 142.1 143.9 142.1L143.9 142.1Q143.2 142.1 142.8 142.4Q142.4 142.7 142.4 143.3L142.4 143.3Q142.4 143.9 142.8 144.1Q143.2 144.4 143.9 144.5L143.9 144.5L144.5 144.6Q145.8 144.8 146.3 145.3Q146.9 145.9 146.9 146.8L146.9 146.8Q146.9 147.9 146.1 148.5Q145.3 149.2 144.0 149.2ZM155.3 149L154.6 149Q153.9 149 153.6 148.6Q153.3 148.3 153.3 147.7L153.3 147.7L153.2 147.7Q152.9 148.5 152.4 148.8Q151.8 149.2 151.0 149.2L151.0 149.2Q149.7 149.2 149.0 148.6Q148.4 147.9 148.4 146.8L148.4 146.8Q148.4 145.7 149.2 145.2Q150.0 144.6 151.7 144.6L151.7 144.6L153.2 144.6L153.2 143.8Q153.2 143.0 152.7 142.6Q152.3 142.1 151.4 142.1L151.4 142.1Q150.7 142.1 150.2 142.4Q149.7 142.7 149.4 143.3L149.4 143.3L148.7 142.6Q149.0 142.0 149.7 141.5Q150.4 141.1 151.4 141.1L151.4 141.1Q152.8 141.1 153.6 141.8Q154.4 142.5 154.4 143.7L154.4 143.7L154.4 147.9L155.3 147.9L155.3 149ZM151.2 148.2L151.2 148.2Q151.6 148.2 152.0 148.1Q152.4 147.9 152.6 147.8Q152.9 147.6 153.0 147.3Q153.2 147.1 153.2 146.8L153.2 146.8L153.2 145.5L151.6 145.5Q150.6 145.5 150.1 145.8Q149.6 146.1 149.6 146.6L149.6 146.6L149.6 147.0Q149.6 147.5 150.0 147.8Q150.4 148.2 151.2 148.2ZM163.5 149.9L163.5 149.9Q163.5 151.1 162.6 151.6Q161.6 152.2 159.8 152.2L159.8 152.2Q157.9 152.2 157.2 151.7Q156.4 151.2 156.4 150.3L156.4 150.3Q156.4 149.6 156.7 149.3Q157.0 148.9 157.6 148.8L157.6 148.8L157.6 148.6Q156.9 148.3 156.9 147.5L156.9 147.5Q156.9 146.9 157.3 146.6Q157.6 146.3 158.2 146.2L158.2 146.2L158.2 146.1Q157.5 145.8 157.2 145.2Q156.8 144.6 156.8 143.8L156.8 143.8Q156.8 143.2 157.0 142.7Q157.2 142.2 157.6 141.8Q158.0 141.5 158.5 141.3Q159.0 141.1 159.7 141.1L159.7 141.1Q160.5 141.1 161.2 141.4L161.2 141.4L161.2 141.2Q161.2 140.8 161.4 140.5Q161.6 140.2 162.1 140.2L162.1 140.2L163.2 140.2L163.2 141.3L161.7 141.3L161.7 141.8Q162.2 142.1 162.4 142.6Q162.6 143.1 162.6 143.8L162.6 143.8Q162.6 144.3 162.4 144.8Q162.2 145.3 161.8 145.7Q161.4 146.0 160.9 146.2Q160.4 146.4 159.7 146.4L159.7 146.4Q159.3 146.4 159.0 146.3L159.0 146.3Q158.6 146.4 158.2 146.7Q157.9 146.9 157.9 147.2L157.9 147.2Q157.9 147.6 158.3 147.7Q158.6 147.8 159.1 147.8L159.1 147.8L160.8 147.8Q162.2 147.8 162.9 148.3Q163.5 148.9 163.5 149.9ZM162.4 149.9L162.4 149.9Q162.4 149.5 162.0 149.2Q161.7 148.9 160.8 148.9L160.8 148.9L158.2 148.9Q157.5 149.3 157.5 150.0L157.5 150.0Q157.5 150.5 157.9 150.8Q158.2 151.2 159.2 151.2L159.2 151.2L160.3 151.2Q161.3 151.2 161.8 150.9Q162.4 150.6 162.4 149.9ZM159.7 145.5L159.7 145.5Q160.5 145.5 160.9 145.1Q161.4 144.7 161.4 144.0L161.4 144.0L161.4 143.5Q161.4 142.8 160.9 142.4Q160.5 142.0 159.7 142.0L159.7 142.0Q158.9 142.0 158.5 142.4Q158.0 142.8 158.0 143.5L158.0 143.5L158.0 144.0Q158.0 144.7 158.5 145.1Q158.9 145.5 159.7 145.5ZM167.7 149.2L167.7 149.2Q166.9 149.2 166.3 148.9Q165.7 148.6 165.2 148.1Q164.7 147.5 164.5 146.8Q164.2 146.1 164.2 145.1L164.2 145.1Q164.2 144.2 164.5 143.5Q164.7 142.7 165.2 142.2Q165.7 141.7 166.3 141.4Q166.9 141.1 167.7 141.1L167.7 141.1Q168.5 141.1 169.1 141.4Q169.7 141.7 170.2 142.2Q170.6 142.7 170.8 143.3Q171.1 144.0 171.1 144.9L171.1 144.9L171.1 145.4L165.5 145.4L165.5 145.8Q165.5 146.3 165.7 146.7Q165.8 147.1 166.1 147.5Q166.4 147.8 166.8 147.9Q167.3 148.1 167.8 148.1L167.8 148.1Q168.5 148.1 169.1 147.8Q169.6 147.4 169.9 146.8L169.9 146.8L170.8 147.4Q170.4 148.2 169.6 148.7Q168.8 149.2 167.7 149.2ZM167.7 142.1L167.7 142.1Q167.2 142.1 166.8 142.3Q166.4 142.4 166.1 142.7Q165.8 143.1 165.7 143.5Q165.5 143.9 165.5 144.4L165.5 144.4L165.5 144.5L169.8 144.5L169.8 144.4Q169.8 143.3 169.2 142.7Q168.7 142.1 167.7 142.1ZM174.0 149.2L174.0 149.2Q173.5 149.2 173.3 148.9Q173.1 148.7 173.1 148.3L173.1 148.3L173.1 148.1Q173.1 147.7 173.3 147.5Q173.5 147.2 174.0 147.2L174.0 147.2Q174.4 147.2 174.7 147.5Q174.9 147.7 174.9 148.1L174.9 148.1L174.9 148.3Q174.9 148.7 174.7 148.9Q174.4 149.2 174.0 149.2ZM174.0 143.0L174.0 143.0Q173.5 143.0 173.3 142.8Q173.1 142.5 173.1 142.1L173.1 142.1L173.1 141.9Q173.1 141.6 173.3 141.3Q173.5 141.1 174.0 141.1L174.0 141.1Q174.4 141.1 174.7 141.3Q174.9 141.6 174.9 141.9L174.9 141.9L174.9 142.1Q174.9 142.5 174.7 142.8Q174.4 143.0 174.0 143.0Z M187.7 147.9L187.7 149L180.8 149L180.8 147.7L184.2 144.6Q185.0 143.9 185.5 143.1Q186.0 142.4 186.0 141.6L186.0 141.6L186.0 141.4Q186.0 140.6 185.5 140.0Q185.0 139.5 184.0 139.5L184.0 139.5Q183.5 139.5 183.2 139.6Q182.8 139.7 182.6 140.0Q182.3 140.2 182.1 140.5Q182.0 140.9 181.9 141.2L181.9 141.2L180.7 140.8Q180.9 140.3 181.1 139.9Q181.4 139.5 181.8 139.1Q182.2 138.8 182.8 138.6Q183.3 138.3 184.1 138.3L184.1 138.3Q184.9 138.3 185.5 138.6Q186.1 138.8 186.5 139.2Q186.9 139.6 187.1 140.2Q187.3 140.7 187.3 141.4L187.3 141.4Q187.3 142.0 187.1 142.5Q187.0 143.1 186.7 143.5Q186.4 144.0 185.9 144.5Q185.5 144.9 185.0 145.4L185.0 145.4L182.2 147.9L187.7 147.9ZM190.7 147.2L190.7 147.2Q191.2 147.2 191.4 147.5Q191.7 147.7 191.7 148.1L191.7 148.1L191.7 148.3Q191.7 149.0 191.3 149.7Q190.9 150.4 190.3 151.0L190.3 151.0L189.3 151.0Q189.7 150.5 190.0 150.1Q190.3 149.7 190.4 149.1L190.4 149.1Q190.1 149.1 190.0 148.8Q189.8 148.6 189.8 148.3L189.8 148.3L189.8 148.1Q189.8 147.7 190.0 147.5Q190.3 147.2 190.7 147.2ZM197.3 149.2L197.3 149.2Q195.4 149.2 194.5 147.8Q193.7 146.3 193.7 143.8L193.7 143.8Q193.7 141.2 194.5 139.8Q195.4 138.3 197.3 138.3L197.3 138.3Q199.2 138.3 200.0 139.8Q200.9 141.2 200.9 143.8L200.9 143.8Q200.9 146.3 200.0 147.8Q199.2 149.2 197.3 149.2ZM197.3 148.1L197.3 148.1Q197.9 148.1 198.3 147.8Q198.8 147.6 199.0 147.1Q199.3 146.6 199.4 146.0Q199.6 145.4 199.6 144.6L199.6 144.6L199.6 142.9Q199.6 142.1 199.4 141.5Q199.3 140.9 199.0 140.4Q198.8 140.0 198.3 139.7Q197.9 139.4 197.3 139.4L197.3 139.4Q196.7 139.4 196.2 139.7Q195.8 140.0 195.5 140.4Q195.3 140.9 195.1 141.5Q195.0 142.1 195.0 142.9L195.0 142.9L195.0 144.6Q195.0 145.4 195.1 146.0Q195.3 146.6 195.5 147.1Q195.8 147.6 196.2 147.8Q196.7 148.1 197.3 148.1ZM206.3 149.2L206.3 149.2Q204.4 149.2 203.5 147.8Q202.7 146.3 202.7 143.8L202.7 143.8Q202.7 141.2 203.5 139.8Q204.4 138.3 206.3 138.3L206.3 138.3Q208.2 138.3 209.0 139.8Q209.9 141.2 209.9 143.8L209.9 143.8Q209.9 146.3 209.0 147.8Q208.2 149.2 206.3 149.2ZM206.3 148.1L206.3 148.1Q206.9 148.1 207.3 147.8Q207.8 147.6 208.0 147.1Q208.3 146.6 208.4 146.0Q208.6 145.4 208.6 144.6L208.6 144.6L208.6 142.9Q208.6 142.1 208.4 141.5Q208.3 140.9 208.0 140.4Q207.8 140.0 207.3 139.7Q206.9 139.4 206.3 139.4L206.3 139.4Q205.7 139.4 205.2 139.7Q204.8 140.0 204.5 140.4Q204.3 140.9 204.1 141.5Q204.0 142.1 204.0 142.9L204.0 142.9L204.0 144.6Q204.0 145.4 204.1 146.0Q204.3 146.6 204.5 147.1Q204.8 147.6 205.2 147.8Q205.7 148.1 206.3 148.1ZM215.3 149.2L215.3 149.2Q213.4 149.2 212.5 147.8Q211.7 146.3 211.7 143.8L211.7 143.8Q211.7 141.2 212.5 139.8Q213.4 138.3 215.3 138.3L215.3 138.3Q217.2 138.3 218.0 139.8Q218.9 141.2 218.9 143.8L218.9 143.8Q218.9 146.3 218.0 147.8Q217.2 149.2 215.3 149.2ZM215.3 148.1L215.3 148.1Q215.9 148.1 216.3 147.8Q216.8 147.6 217.0 147.1Q217.3 146.6 217.4 146.0Q217.6 145.4 217.6 144.6L217.6 144.6L217.6 142.9Q217.6 142.1 217.4 141.5Q217.3 140.9 217.0 140.4Q216.8 140.0 216.3 139.7Q215.9 139.4 215.3 139.4L215.3 139.4Q214.7 139.4 214.2 139.7Q213.8 140.0 213.5 140.4Q213.3 140.9 213.1 141.5Q213.0 142.1 213.0 142.9L213.0 142.9L213.0 144.6Q213.0 145.4 213.1 146.0Q213.3 146.6 213.5 147.1Q213.8 147.6 214.2 147.8Q214.7 148.1 215.3 148.1Z "/></g><mask id="satori_om-id-2-3"><rect x="310" y="134" width="270" height="20" fill="#fff"/></mask><defs><clipPath id="satori_bc-id-2-3-0"><rect x="310" y="135" width="18" height="18"/></clipPath></defs><mask id="satori_om-id-2-3-0"><rect x="312" y="137" width="14" height="14" fill="#fff"/><path width="18" height="18" fill="none" stroke="#000" stroke-width="4" d="M310,135 A0,0 0 0 1 310,135 h18 a0,0 0 0 1 0,0 v18 a0,0 0 0 1 0,0 h-18 a0,0 0 0 1 0,0 v-18 A0,0 0 0 1 310,135"/></mask><rect x="310" y="135" width="18" height="18" fill="#F7F5EF"/><path width="18" height="18" clip-path="url(#satori_bc-id-2-3-0)" fill="none" stroke="#817B6D" stroke-width="4" stroke-dasharray="4 2" d="M310,135 A0,0 0 0 1 310,135 h18 a0,0 0 0 1 0,0 v18 a0,0 0 0 1 0,0 h-18 a0,0 0 0 1 0,0 v-18 A0,0 0 0 1 310,135"/><mask id="satori_om-id-2-3-1"><rect x="336" y="134" width="240" height="20" fill="#fff"/></mask><g  ><path fill="#1B1A17" d="M338.7 149L337.4 149L337.4 138.5L343.6 138.5L343.6 139.6L338.7 139.6L338.7 143.2L343.2 143.2L343.2 144.3L338.7 144.3L338.7 149ZM346.6 149L345.4 149L345.4 141.3L346.6 141.3L346.6 142.7L346.6 142.7Q346.8 142.1 347.4 141.7Q347.9 141.3 348.9 141.3L348.9 141.3L349.3 141.3L349.3 142.5L348.6 142.5Q347.7 142.5 347.1 142.8Q346.6 143.2 346.6 143.8L346.6 143.8L346.6 149ZM353.7 149.2L353.7 149.2Q352.9 149.2 352.3 148.9Q351.6 148.6 351.2 148.1Q350.7 147.5 350.5 146.8Q350.2 146.1 350.2 145.1L350.2 145.1Q350.2 144.2 350.5 143.5Q350.7 142.7 351.2 142.2Q351.6 141.7 352.3 141.4Q352.9 141.1 353.7 141.1L353.7 141.1Q354.5 141.1 355.1 141.4Q355.7 141.7 356.1 142.2Q356.6 142.7 356.8 143.3Q357.0 144.0 357.0 144.9L357.0 144.9L357.0 145.4L351.5 145.4L351.5 145.8Q351.5 146.3 351.6 146.7Q351.8 147.1 352.1 147.5Q352.4 147.8 352.8 147.9Q353.2 148.1 353.8 148.1L353.8 148.1Q354.5 148.1 355.1 147.8Q355.6 147.4 355.9 146.8L355.9 146.8L356.8 147.4Q356.4 148.2 355.6 148.7Q354.8 149.2 353.7 149.2ZM353.7 142.1L353.7 142.1Q353.2 142.1 352.8 142.3Q352.4 142.4 352.1 142.7Q351.8 143.1 351.6 143.5Q351.5 143.9 351.5 144.4L351.5 144.4L351.5 144.5L355.8 144.5L355.8 144.4Q355.8 143.3 355.2 142.7Q354.6 142.1 353.7 142.1ZM361.9 149.2L361.9 149.2Q361.1 149.2 360.5 148.9Q359.9 148.6 359.4 148.1Q358.9 147.5 358.7 146.8Q358.5 146.1 358.5 145.1L358.5 145.1Q358.5 144.2 358.7 143.5Q358.9 142.7 359.4 142.2Q359.9 141.7 360.5 141.4Q361.1 141.1 361.9 141.1L361.9 141.1Q362.7 141.1 363.3 141.4Q363.9 141.7 364.4 142.2Q364.8 142.7 365.0 143.3Q365.3 144.0 365.3 144.9L365.3 144.9L365.3 145.4L359.7 145.4L359.7 145.8Q359.7 146.3 359.9 146.7Q360.0 147.1 360.3 147.5Q360.6 147.8 361.0 147.9Q361.5 148.1 362.0 148.1L362.0 148.1Q362.7 148.1 363.3 147.8Q363.8 147.4 364.1 146.8L364.1 146.8L365.0 147.4Q364.6 148.2 363.8 148.7Q363.0 149.2 361.9 149.2ZM361.9 142.1L361.9 142.1Q361.4 142.1 361.0 142.3Q360.6 142.4 360.3 142.7Q360.0 143.1 359.9 143.5Q359.7 143.9 359.7 144.4L359.7 144.4L359.7 144.5L364.0 144.5L364.0 144.4Q364.0 143.3 363.4 142.7Q362.9 142.1 361.9 142.1Z M371.2 149L371.2 142.3L370.0 142.3L370.0 141.3L371.2 141.3L371.2 139.7Q371.2 138.9 371.6 138.4Q372.1 137.9 372.9 137.9L372.9 137.9L374.1 137.9L374.1 138.9L372.4 138.9L372.4 141.3L374.1 141.3L374.1 142.3L372.4 142.3L372.4 149L371.2 149ZM378.5 149.2L378.5 149.2Q377.7 149.2 377.1 148.9Q376.5 148.6 376.0 148.1Q375.5 147.5 375.3 146.8Q375.0 146.1 375.0 145.1L375.0 145.1Q375.0 144.2 375.3 143.5Q375.5 142.7 376.0 142.2Q376.5 141.7 377.1 141.4Q377.7 141.1 378.5 141.1L378.5 141.1Q379.3 141.1 379.9 141.4Q380.6 141.7 381.0 142.2Q381.5 142.7 381.8 143.5Q382.0 144.2 382.0 145.1L382.0 145.1Q382.0 146.1 381.8 146.8Q381.5 147.5 381.0 148.1Q380.6 148.6 379.9 148.9Q379.3 149.2 378.5 149.2ZM378.5 148.1L378.5 148.1Q379.5 148.1 380.1 147.5Q380.7 146.9 380.7 145.7L380.7 145.7L380.7 144.6Q380.7 143.3 380.1 142.7Q379.5 142.1 378.5 142.1L378.5 142.1Q377.6 142.1 376.9 142.7Q376.3 143.3 376.3 144.6L376.3 144.6L376.3 145.7Q376.3 146.9 376.9 147.5Q377.6 148.1 378.5 148.1ZM385.2 149L384.0 149L384.0 141.3L385.2 141.3L385.2 142.7L385.3 142.7Q385.5 142.1 386.0 141.7Q386.6 141.3 387.5 141.3L387.5 141.3L388.0 141.3L388.0 142.5L387.3 142.5Q386.3 142.5 385.7 142.8Q385.2 143.2 385.2 143.8L385.2 143.8L385.2 149Z M396.3 149L394.8 149Q394.1 149 393.8 148.6Q393.5 148.3 393.5 147.7L393.5 147.7L393.5 142.3L392.2 142.3L392.2 141.3L392.9 141.3Q393.3 141.3 393.5 141.1Q393.6 140.9 393.6 140.6L393.6 140.6L393.6 139.1L394.7 139.1L394.7 141.3L396.4 141.3L396.4 142.3L394.7 142.3L394.7 147.9L396.3 147.9L396.3 149ZM398.3 149L398.3 137.9L399.5 137.9L399.5 142.5L399.6 142.5Q399.9 141.9 400.4 141.5Q400.9 141.1 401.8 141.1L401.8 141.1Q403.0 141.1 403.7 141.9Q404.4 142.6 404.4 144.0L404.4 144.0L404.4 149L403.2 149L403.2 144.2Q403.2 142.2 401.4 142.2L401.4 142.2Q401.0 142.2 400.7 142.3Q400.4 142.3 400.1 142.5Q399.8 142.7 399.7 143.0Q399.5 143.3 399.5 143.6L399.5 143.6L399.5 149L398.3 149ZM407.4 139.4L407.4 139.4Q407.0 139.4 406.9 139.3Q406.7 139.1 406.7 138.8L406.7 138.8L406.7 138.6Q406.7 138.3 406.9 138.1Q407.0 137.9 407.4 137.9L407.4 137.9Q407.8 137.9 408.0 138.1Q408.2 138.3 408.2 138.6L408.2 138.6L408.2 138.8Q408.2 139.1 408.0 139.3Q407.8 139.4 407.4 139.4ZM406.8 149L406.8 141.3L408.0 141.3L408.0 149L406.8 149ZM411.8 149L410.6 149L410.6 141.3L411.8 141.3L411.8 142.5L411.8 142.5Q412.1 141.9 412.6 141.5Q413.2 141.1 414.0 141.1L414.0 141.1Q415.2 141.1 415.9 141.9Q416.6 142.6 416.6 144.0L416.6 144.0L416.6 149L415.4 149L415.4 144.2Q415.4 142.2 413.7 142.2L413.7 142.2Q413.3 142.2 413.0 142.3Q412.6 142.3 412.4 142.5Q412.1 142.7 411.9 143.0Q411.8 143.3 411.8 143.6L411.8 143.6L411.8 149ZM419.1 149L419.1 137.9L420.3 137.9L420.3 144.9L420.4 144.9L421.5 143.6L423.7 141.3L425.2 141.3L422.3 144.3L425.5 149L424.0 149L421.5 145.1L420.3 146.2L420.3 149L419.1 149ZM427.6 139.4L427.6 139.4Q427.2 139.4 427.0 139.3Q426.9 139.1 426.9 138.8L426.9 138.8L426.9 138.6Q426.9 138.3 427.0 138.1Q427.2 137.9 427.6 137.9L427.6 137.9Q428.0 137.9 428.2 138.1Q428.3 138.3 428.3 138.6L428.3 138.6L428.3 138.8Q428.3 139.1 428.2 139.3Q428.0 139.4 427.6 139.4ZM427.0 149L427.0 141.3L428.2 141.3L428.2 149L427.0 149ZM432.0 149L430.8 149L430.8 141.3L432.0 141.3L432.0 142.5L432.0 142.5Q432.3 141.9 432.8 141.5Q433.3 141.1 434.2 141.1L434.2 141.1Q435.4 141.1 436.1 141.9Q436.8 142.6 436.8 144.0L436.8 144.0L436.8 149L435.6 149L435.6 144.2Q435.6 142.2 433.8 142.2L433.8 142.2Q433.5 142.2 433.1 142.3Q432.8 142.3 432.5 142.5Q432.3 142.7 432.1 143.0Q432.0 143.3 432.0 143.6L432.0 143.6L432.0 149ZM445.8 149.9L445.8 149.9Q445.8 151.1 444.9 151.6Q443.9 152.2 442.0 152.2L442.0 152.2Q440.2 152.2 439.4 151.7Q438.6 151.2 438.6 150.3L438.6 150.3Q438.6 149.6 439.0 149.3Q439.3 148.9 439.9 148.8L439.9 148.8L439.9 148.6Q439.2 148.3 439.2 147.5L439.2 147.5Q439.2 146.9 439.6 146.6Q439.9 146.3 440.5 146.2L440.5 146.2L440.5 146.1Q439.8 145.8 439.4 145.2Q439.1 144.6 439.1 143.8L439.1 143.8Q439.1 143.2 439.3 142.7Q439.5 142.2 439.9 141.8Q440.2 141.5 440.8 141.3Q441.3 141.1 442.0 141.1L442.0 141.1Q442.8 141.1 443.4 141.4L443.4 141.4L443.4 141.2Q443.4 140.8 443.7 140.5Q443.9 140.2 444.3 140.2L444.3 140.2L445.5 140.2L445.5 141.3L444.0 141.3L444.0 141.8Q444.4 142.1 444.7 142.6Q444.9 143.1 444.9 143.8L444.9 143.8Q444.9 144.3 444.7 144.8Q444.5 145.3 444.1 145.7Q443.7 146.0 443.2 146.2Q442.6 146.4 442.0 146.4L442.0 146.4Q441.6 146.4 441.2 146.3L441.2 146.3Q440.8 146.4 440.5 146.7Q440.2 146.9 440.2 147.2L440.2 147.2Q440.2 147.6 440.5 147.7Q440.9 147.8 441.4 147.8L441.4 147.8L443.1 147.8Q444.5 147.8 445.1 148.3Q445.8 148.9 445.8 149.9ZM444.7 149.9L444.7 149.9Q444.7 149.5 444.3 149.2Q444.0 148.9 443.1 148.9L443.1 148.9L440.5 148.9Q439.8 149.3 439.8 150.0L439.8 150.0Q439.8 150.5 440.2 150.8Q440.5 151.2 441.4 151.2L441.4 151.2L442.6 151.2Q443.6 151.2 444.1 150.9Q444.7 150.6 444.7 149.9ZM442.0 145.5L442.0 145.5Q442.8 145.5 443.2 145.1Q443.7 144.7 443.7 144.0L443.7 144.0L443.7 143.5Q443.7 142.8 443.2 142.4Q442.8 142.0 442.0 142.0L442.0 142.0Q441.2 142.0 440.8 142.4Q440.3 142.8 440.3 143.5L440.3 143.5L440.3 144.0Q440.3 144.7 440.8 145.1Q441.2 145.5 442.0 145.5Z M457.0 149L456.4 149Q455.7 149 455.4 148.6Q455.1 148.3 455.0 147.7L455.0 147.7L454.9 147.7Q454.7 148.5 454.1 148.8Q453.5 149.2 452.7 149.2L452.7 149.2Q451.5 149.2 450.8 148.6Q450.1 147.9 450.1 146.8L450.1 146.8Q450.1 145.7 450.9 145.2Q451.7 144.6 453.4 144.6L453.4 144.6L454.9 144.6L454.9 143.8Q454.9 143.0 454.5 142.6Q454.0 142.1 453.1 142.1L453.1 142.1Q452.4 142.1 451.9 142.4Q451.5 142.7 451.2 143.3L451.2 143.3L450.4 142.6Q450.8 142.0 451.4 141.5Q452.1 141.1 453.2 141.1L453.2 141.1Q454.6 141.1 455.4 141.8Q456.1 142.5 456.1 143.7L456.1 143.7L456.1 147.9L457.0 147.9L457.0 149ZM452.9 148.2L452.9 148.2Q453.4 148.2 453.7 148.1Q454.1 147.9 454.4 147.8Q454.6 147.6 454.8 147.3Q454.9 147.1 454.9 146.8L454.9 146.8L454.9 145.5L453.4 145.5Q452.3 145.5 451.9 145.8Q451.4 146.1 451.4 146.6L451.4 146.6L451.4 147.0Q451.4 147.5 451.8 147.8Q452.2 148.2 452.9 148.2ZM459.9 149L458.7 149L458.7 141.3L459.9 141.3L459.9 142.5L460.0 142.5Q460.3 141.9 460.8 141.5Q461.3 141.1 462.2 141.1L462.2 141.1Q463.4 141.1 464.1 141.9Q464.8 142.6 464.8 144.0L464.8 144.0L464.8 149L463.6 149L463.6 144.2Q463.6 142.2 461.8 142.2L461.8 142.2Q461.5 142.2 461.1 142.3Q460.8 142.3 460.5 142.5Q460.3 142.7 460.1 143.0Q459.9 143.3 459.9 143.6L459.9 143.6L459.9 149ZM472.2 149L472.2 147.7L472.2 147.7Q471.4 149.2 469.9 149.2L469.9 149.2Q469.2 149.2 468.6 148.9Q468.0 148.6 467.6 148.1Q467.2 147.6 467.0 146.8Q466.7 146.1 466.7 145.1L466.7 145.1Q466.7 144.2 467.0 143.4Q467.2 142.7 467.6 142.2Q468.0 141.7 468.6 141.4Q469.2 141.1 469.9 141.1L469.9 141.1Q470.7 141.1 471.3 141.4Q471.9 141.8 472.2 142.5L472.2 142.5L472.2 142.5L472.2 137.9L473.4 137.9L473.4 149L472.2 149ZM470.2 148.1L470.2 148.1Q470.6 148.1 471.0 148.0Q471.4 147.9 471.6 147.7Q471.9 147.5 472.1 147.2Q472.2 146.9 472.2 146.5L472.2 146.5L472.2 143.6Q472.2 143.3 472.1 143.1Q471.9 142.8 471.6 142.6Q471.4 142.4 471.0 142.3Q470.6 142.2 470.2 142.2L470.2 142.2Q469.2 142.2 468.6 142.8Q468.0 143.4 468.0 144.5L468.0 144.5L468.0 145.8Q468.0 146.8 468.6 147.5Q469.2 148.1 470.2 148.1Z M485.8 149L485.1 149Q484.5 149 484.2 148.6Q483.9 148.3 483.8 147.7L483.8 147.7L483.7 147.7Q483.5 148.5 482.9 148.8Q482.3 149.2 481.5 149.2L481.5 149.2Q480.3 149.2 479.6 148.6Q478.9 147.9 478.9 146.8L478.9 146.8Q478.9 145.7 479.7 145.2Q480.5 144.6 482.2 144.6L482.2 144.6L483.7 144.6L483.7 143.8Q483.7 143.0 483.3 142.6Q482.8 142.1 481.9 142.1L481.9 142.1Q481.2 142.1 480.7 142.4Q480.2 142.7 479.9 143.3L479.9 143.3L479.2 142.6Q479.5 142.0 480.2 141.5Q480.9 141.1 482.0 141.1L482.0 141.1Q483.4 141.1 484.1 141.8Q484.9 142.5 484.9 143.7L484.9 143.7L484.9 147.9L485.8 147.9L485.8 149ZM481.7 148.2L481.7 148.2Q482.1 148.2 482.5 148.1Q482.9 147.9 483.2 147.8Q483.4 147.6 483.6 147.3Q483.7 147.1 483.7 146.8L483.7 146.8L483.7 145.5L482.1 145.5Q481.1 145.5 480.6 145.8Q480.2 146.1 480.2 146.6L480.2 146.6L480.2 147.0Q480.2 147.5 480.6 147.8Q481.0 148.2 481.7 148.2ZM488.7 149L487.5 149L487.5 141.3L488.7 141.3L488.7 142.5L488.8 142.5Q489.1 141.9 489.6 141.5Q490.1 141.1 491.0 141.1L491.0 141.1Q492.2 141.1 492.9 141.9Q493.6 142.6 493.6 144.0L493.6 144.0L493.6 149L492.4 149L492.4 144.2Q492.4 142.2 490.6 142.2L490.6 142.2Q490.2 142.2 489.9 142.3Q489.6 142.3 489.3 142.5Q489.0 142.7 488.9 143.0Q488.7 143.3 488.7 143.6L488.7 143.6L488.7 149ZM498.4 149.2L498.4 149.2Q497.3 149.2 496.6 148.8Q495.8 148.4 495.3 147.7L495.3 147.7L496.2 147.0Q496.6 147.5 497.2 147.9Q497.7 148.2 498.4 148.2L498.4 148.2Q499.2 148.2 499.6 147.8Q500.1 147.5 500.1 146.9L500.1 146.9Q500.1 146.4 499.8 146.1Q499.5 145.8 498.7 145.7L498.7 145.7L498.1 145.6Q497.6 145.5 497.1 145.4Q496.7 145.2 496.3 144.9Q496.0 144.7 495.8 144.3Q495.6 143.9 495.6 143.4L495.6 143.4Q495.6 142.8 495.8 142.4Q496.0 141.9 496.4 141.7Q496.8 141.4 497.3 141.2Q497.8 141.1 498.4 141.1L498.4 141.1Q499.3 141.1 500.0 141.4Q500.6 141.7 501.1 142.3L501.1 142.3L500.3 143.0Q500.0 142.7 499.5 142.4Q499.0 142.1 498.3 142.1L498.3 142.1Q497.5 142.1 497.2 142.4Q496.8 142.7 496.8 143.3L496.8 143.3Q496.8 143.9 497.2 144.1Q497.5 144.4 498.3 144.5L498.3 144.5L498.9 144.6Q500.1 144.8 500.7 145.3Q501.2 145.9 501.2 146.8L501.2 146.8Q501.2 147.9 500.5 148.5Q499.7 149.2 498.4 149.2ZM504.5 149L502.4 141.3L503.6 141.3L504.4 144.6L505.2 148.0L505.2 148.0L506.2 144.6L507.2 141.3L508.2 141.3L509.2 144.6L510.2 148.0L510.2 148.0L511.0 144.6L511.9 141.3L513.0 141.3L510.9 149L509.4 149L508.4 145.3L507.7 142.9L507.7 142.9L507 145.3L505.9 149L504.5 149ZM517.6 149.2L517.6 149.2Q516.8 149.2 516.1 148.9Q515.5 148.6 515.0 148.1Q514.6 147.5 514.3 146.8Q514.1 146.1 514.1 145.1L514.1 145.1Q514.1 144.2 514.3 143.5Q514.6 142.7 515.0 142.2Q515.5 141.7 516.1 141.4Q516.8 141.1 517.6 141.1L517.6 141.1Q518.3 141.1 519.0 141.4Q519.6 141.7 520.0 142.2Q520.4 142.7 520.7 143.3Q520.9 144.0 520.9 144.9L520.9 144.9L520.9 145.4L515.3 145.4L515.3 145.8Q515.3 146.3 515.5 146.7Q515.7 147.1 515.9 147.5Q516.2 147.8 516.7 147.9Q517.1 148.1 517.6 148.1L517.6 148.1Q518.4 148.1 518.9 147.8Q519.5 147.4 519.8 146.8L519.8 146.8L520.6 147.4Q520.2 148.2 519.5 148.7Q518.7 149.2 517.6 149.2ZM517.6 142.1L517.6 142.1Q517.1 142.1 516.7 142.3Q516.3 142.4 516.0 142.7Q515.7 143.1 515.5 143.5Q515.3 143.9 515.3 144.4L515.3 144.4L515.3 144.5L519.6 144.5L519.6 144.4Q519.6 143.3 519.1 142.7Q518.5 142.1 517.6 142.1ZM524.1 149L522.9 149L522.9 141.3L524.1 141.3L524.1 142.7L524.2 142.7Q524.4 142.1 524.9 141.7Q525.5 141.3 526.4 141.3L526.4 141.3L526.9 141.3L526.9 142.5L526.2 142.5Q525.2 142.5 524.6 142.8Q524.1 143.2 524.1 143.8L524.1 143.8L524.1 149ZM529.3 149.2L529.3 149.2Q528.8 149.2 528.6 148.9Q528.4 148.7 528.4 148.3L528.4 148.3L528.4 148.1Q528.4 147.7 528.6 147.5Q528.8 147.2 529.3 147.2L529.3 147.2Q529.8 147.2 530.0 147.5Q530.2 147.7 530.2 148.1L530.2 148.1L530.2 148.3Q530.2 148.7 530.0 148.9Q529.8 149.2 529.3 149.2ZM529.3 143.0L529.3 143.0Q528.8 143.0 528.6 142.8Q528.4 142.5 528.4 142.1L528.4 142.1L528.4 141.9Q528.4 141.6 528.6 141.3Q528.8 141.1 529.3 141.1L529.3 141.1Q529.8 141.1 530.0 141.3Q530.2 141.6 530.2 141.9L530.2 141.9L530.2 142.1Q530.2 142.5 530.0 142.8Q529.8 143.0 529.3 143.0Z M539.5 149.2L539.5 149.2Q538.6 149.2 538.0 148.9Q537.3 148.7 536.8 148.3Q536.4 147.9 536.1 147.3Q535.9 146.8 535.9 146.2L535.9 146.2Q535.9 145.1 536.5 144.4Q537.1 143.8 538.0 143.6L538.0 143.6L538.0 143.4Q537.2 143.2 536.7 142.5Q536.2 141.9 536.2 141.0L536.2 141.0Q536.2 139.8 537.1 139.1Q538.0 138.3 539.5 138.3L539.5 138.3Q541.1 138.3 542.0 139.1Q542.9 139.8 542.9 141.0L542.9 141.0Q542.9 141.9 542.4 142.5Q541.9 143.2 541.0 143.4L541.0 143.4L541.0 143.6Q542.0 143.8 542.6 144.4Q543.2 145.1 543.2 146.2L543.2 146.2Q543.2 146.8 542.9 147.3Q542.7 147.9 542.2 148.3Q541.8 148.7 541.1 148.9Q540.4 149.2 539.5 149.2ZM539.5 148.1L539.5 148.1Q540.6 148.1 541.2 147.6Q541.8 147.1 541.8 146.2L541.8 146.2L541.8 145.9Q541.8 145.0 541.2 144.5Q540.6 144.0 539.5 144.0L539.5 144.0Q538.4 144.0 537.8 144.5Q537.2 145.0 537.2 145.9L537.2 145.9L537.2 146.2Q537.2 147.1 537.8 147.6Q538.4 148.1 539.5 148.1ZM539.5 143.0L539.5 143.0Q540.5 143.0 541.0 142.6Q541.5 142.1 541.5 141.3L541.5 141.3L541.5 141.1Q541.5 140.3 541.0 139.9Q540.5 139.4 539.5 139.4L539.5 139.4Q538.5 139.4 538.0 139.9Q537.5 140.3 537.5 141.1L537.5 141.1L537.5 141.3Q537.5 142.1 538.0 142.6Q538.5 143.0 539.5 143.0ZM546.1 147.2L546.1 147.2Q546.6 147.2 546.8 147.5Q547.0 147.7 547.0 148.1L547.0 148.1L547.0 148.3Q547.0 149.0 546.6 149.7Q546.3 150.4 545.6 151.0L545.6 151.0L544.6 151.0Q545.1 150.5 545.3 150.1Q545.6 149.7 545.7 149.1L545.7 149.1Q545.4 149.1 545.3 148.8Q545.2 148.6 545.2 148.3L545.2 148.3L545.2 148.1Q545.2 147.7 545.4 147.5Q545.6 147.2 546.1 147.2ZM552.6 149.2L552.6 149.2Q550.7 149.2 549.9 147.8Q549.0 146.3 549.0 143.8L549.0 143.8Q549.0 141.2 549.9 139.8Q550.7 138.3 552.6 138.3L552.6 138.3Q554.5 138.3 555.4 139.8Q556.2 141.2 556.2 143.8L556.2 143.8Q556.2 146.3 555.4 147.8Q554.5 149.2 552.6 149.2ZM552.6 148.1L552.6 148.1Q553.2 148.1 553.7 147.8Q554.1 147.6 554.4 147.1Q554.6 146.6 554.8 146.0Q554.9 145.4 554.9 144.6L554.9 144.6L554.9 142.9Q554.9 142.1 554.8 141.5Q554.6 140.9 554.4 140.4Q554.1 140.0 553.7 139.7Q553.2 139.4 552.6 139.4L552.6 139.4Q552 139.4 551.6 139.7Q551.1 140.0 550.9 140.4Q550.6 140.9 550.5 141.5Q550.3 142.1 550.3 142.9L550.3 142.9L550.3 144.6Q550.3 145.4 550.5 146.0Q550.6 146.6 550.9 147.1Q551.1 147.6 551.6 147.8Q552 148.1 552.6 148.1ZM561.6 149.2L561.6 149.2Q559.7 149.2 558.9 147.8Q558.0 146.3 558.0 143.8L558.0 143.8Q558.0 141.2 558.9 139.8Q559.7 138.3 561.6 138.3L561.6 138.3Q563.5 138.3 564.4 139.8Q565.2 141.2 565.2 143.8L565.2 143.8Q565.2 146.3 564.4 147.8Q563.5 149.2 561.6 149.2ZM561.6 148.1L561.6 148.1Q562.2 148.1 562.7 147.8Q563.1 147.6 563.4 147.1Q563.6 146.6 563.8 146.0Q563.9 145.4 563.9 144.6L563.9 144.6L563.9 142.9Q563.9 142.1 563.8 141.5Q563.6 140.9 563.4 140.4Q563.1 140.0 562.7 139.7Q562.2 139.4 561.6 139.4L561.6 139.4Q561 139.4 560.6 139.7Q560.1 140.0 559.9 140.4Q559.6 140.9 559.5 141.5Q559.3 142.1 559.3 142.9L559.3 142.9L559.3 144.6Q559.3 145.4 559.5 146.0Q559.6 146.6 559.9 147.1Q560.1 147.6 560.6 147.8Q561 148.1 561.6 148.1ZM570.6 149.2L570.6 149.2Q568.7 149.2 567.9 147.8Q567.0 146.3 567.0 143.8L567.0 143.8Q567.0 141.2 567.9 139.8Q568.7 138.3 570.6 138.3L570.6 138.3Q572.5 138.3 573.4 139.8Q574.2 141.2 574.2 143.8L574.2 143.8Q574.2 146.3 573.4 147.8Q572.5 149.2 570.6 149.2ZM570.6 148.1L570.6 148.1Q571.2 148.1 571.7 147.8Q572.1 147.6 572.4 147.1Q572.6 146.6 572.8 146.0Q572.9 145.4 572.9 144.6L572.9 144.6L572.9 142.9Q572.9 142.1 572.8 141.5Q572.6 140.9 572.4 140.4Q572.1 140.0 571.7 139.7Q571.2 139.4 570.6 139.4L570.6 139.4Q570 139.4 569.6 139.7Q569.1 140.0 568.9 140.4Q568.6 140.9 568.5 141.5Q568.3 142.1 568.3 142.9L568.3 142.9L568.3 144.6Q568.3 145.4 568.5 146.0Q568.6 146.6 568.9 147.1Q569.1 147.6 569.6 147.8Q570 148.1 570.6 148.1Z "/></g></svg>